<?xml version="1.0" encoding="UTF-8"?><svg id="Layer_1" xmlns="http://www.w3.org/2000/svg" viewBox="0 0 2048 802.56"><defs><style>.cls-1{stroke-width:0px;}</style></defs><path class="cls-1" d="m566.96,216.42c-16.8,36-63,54.3-100.2,40.2-42.9-16.2-52.2-72.3-47.7-112.5,4.5-41.1,27.9-86.4,69.6-99.9,36-11.7,75.9,13.2,77.7,51.9.6,14.1-26.7,21-27.6,5.4-.9-12.6-8.1-24.9-19.2-31.2-18-10.2-35.7-.9-48.3,13.5-16.5,18.9-23.4,45.6-24,70.5-.3,22.5,3.9,51.6,20.1,68.7,22.5,24.3,59.7,13.5,73.5-13.2,6.9-13.2,34.2-10.5,26.1,6.6Z"/><path class="cls-1" d="m650.06,145.62c-12.3,11.1-17.1,38.7-20.4,54.6-3.6,16.2-5.7,33-7.8,49.5-1.8,12.6-29.7,18-29.4,2.7,1.2-65.1,2.7-130.2,4.2-195.3.3-15,29.7-21.9,29.4-5.7-.6,27.6-1.2,55.2-1.8,83.1,8.4-11.7,19.2-19.8,33.3-21.6,58.5-6.9,63.9,93.9,60.9,130.8-1.5,14.4-30.3,22.2-29.4,5.7.9-15.9-7.5-132.6-39-103.8Z"/><path class="cls-1" d="m750.25,241.32c-29.1-34.8-18.6-98.4,22.8-118.8,1.2-.6,2.4-1.2,3.9-1.5,11.1-5.4,24-7.8,37.5-6,49.2,7.2,70.5,64.2,47.4,105.6-21.6,38.4-79.8,58.8-111.6,20.7Zm13.5-63.6v.3c-1.5,17.4,3.3,36.3,11.1,45.9,22.2,27.3,57.6,6.3,65.1-22.2,6.6-24.3-6-56.4-32.7-61.8-23.7-4.8-38.7,17.1-43.5,37.8Z"/><path class="cls-1" d="m980.05,225.12c-9.6,23.1-25.5,39.9-50.4,36-51.9-8.4-41.4-100.5-35.1-135.3,2.4-14.4,31.5-16.5,28.2.6-5.1,28.8-9.3,69.9,4.5,96.9,13.5,27,27.3-8.1,31.5-21.9,3.6-12.6,5.4-25.2,6-38.1-.3-4.5,0-8.7,0-12.3,1.2-14.4,30-22.8,30-6,0,4.2-.3,8.7-.6,13.8.3,12.6,1.8,24.6,6.3,36.6,2.4,6.9,6,16.5,11.1,21.9,6.3,6.9,19.5,12.6,25.5,4.8,8.1-10.8,5.4-34.5,5.4-47.1,0-15.3-1.2-30.6-3-46.2-2.1-15,27.6-22.5,29.7-5.7,4.8,36.6,15.3,118.2-34.5,131.4-25.5,6.9-43.2-8.1-54.6-29.4Z"/><path class="cls-1" d="m1128.25,116.82c3.6-22.5,7.5-45,9-66.3,1.2-14.7,30.3-21.6,29.1-5.7-1.8,24-5.4,48-8.4,71.7,14.1.3,27.9.3,41.7.9,19.8.9,9.9,25.5-6.3,24.9-12.6-.6-25.5-.9-38.1-1.2-.6,5.1-.9,10.2-1.2,15-.9,14.4-1.5,29.1-.3,43.5.9,7.8,11.1,53.1,27.3,34.5,10.8-12,35.4-2.1,22.2,12.6-24.6,28.2-66.3,13.8-75.3-19.5-7.5-27.6-6.6-57-3-86.1-9,0-18.3,0-27.3.3-19.5.6-9.3-23.4,6-24,8.1-.3,16.5-.6,24.6-.6Z"/><path class="cls-1" d="m1259.05,124.92c0,20.7-.6,41.7,0,62.4.6,16.5-1.5,43.8,15.9,51.9,15.9,7.5-6.3,27.6-19.8,21.3-16.8-7.8-22.2-23.7-24.3-41.1-3.6-29.4-1.5-59.4-1.5-88.8,0-15,29.7-22.2,29.7-5.7Zm-25.8-33.3c-.9-1.2-1.5-2.7-1.5-4.2v-2.4c0-2.1.6-3.9,1.5-6,.9-.9,1.5-1.8,2.1-2.7,1.8-1.8,3.9-3.3,6-4.2,1.2-.3,2.7-.6,3.9-1.2,1.8-.3,3.3-.3,5.1,0,1.8,0,3.3.6,4.8,1.5,1.2.6,2.4,1.8,3,3,1.2,1.2,1.5,2.7,1.5,4.2v2.4c.3,2.1-.3,3.9-1.5,6-.6.9-1.2,1.8-1.8,2.7-1.8,1.8-3.9,3.3-6.3,4.2-1.2.3-2.4.9-3.6,1.2-1.8.3-3.6.3-5.4,0-1.5,0-3-.6-4.5-1.5-1.5-.6-2.7-1.8-3.3-3Z"/><path class="cls-1" d="m1403.95,205.92c-.3,15-27,22.8-29.7,6-2.7-16.2-5.4-32.4-10.8-48-2.4-7.2-4.5-16.5-11.7-20.1-8.7-3.9-6.6-2.7-10.5,7.5-6.3,17.1-6.6,35.4-3.6,53.1,1.5,6.6,2.7,13.2,4.2,19.8,1.8,6,3.6,12,5.7,17.7,1.5,4.8-.3,9-3.3,12.3-6.6,9.3-24.6,11.7-27.6-2.1-8.1-37.2-15.9-74.4-23.7-111.6-3-13.2,20.7-20.4,27.6-9.6,3.9-4.8,8.4-9.3,14.1-12.9,26.4-17.1,42.9.6,53.4,25.2,9.9-21,25.8-36.6,50.7-31.8,53.4,10.2,45.6,95.7,39.6,133.2-2.4,15-32.4,17.4-29.4-.6,5.1-31.2,8.7-65.1-6.9-94.2-23.7-44.7-37.8,41.7-38.1,56.1Z"/><path class="cls-1" d="m1614.55,170.82c-14.4,22.8-51,35.1-80.1,29.4-.6,7.2,0,14.4,3,20.7,6.6,15.3,18,17.7,34.5,13.8,10.8-2.4,25.5-8.1,30.3-18.6,6.3-13.5,32.4-10.5,25.5,6.6-16.2,39-91.8,56.1-116.1,16.5-9-14.7-9.3-33.9-4.2-52.5-4.8-5.7-.6-12.3,5.7-15.9,9.6-21.3,25.5-40.5,42-49.2,36.3-19.2,87.3,6.3,59.4,49.2Zm-48.9-28.8c-9.9,6-19.5,22.8-24.3,33.6,16.5,3.9,44.7.6,49.2-13.8,5.4-17.4-9.3-28.8-24.9-19.8Z"/><path class="cls-1" d="m793.76,466.42c-16.8,36-63,54.3-100.2,40.2-42.9-16.2-52.2-72.3-47.7-112.5,4.5-41.1,27.9-86.4,69.6-99.9,36-11.7,75.9,13.2,77.7,51.9.6,14.1-26.7,21-27.6,5.4-.9-12.6-8.1-24.9-19.2-31.2-18-10.2-35.7-.9-48.3,13.5-16.5,18.9-23.4,45.6-24,70.5-.3,22.5,3.9,51.6,20.1,68.7,22.5,24.3,59.7,13.5,73.5-13.2,6.9-13.2,34.2-10.5,26.1,6.6Z"/><path class="cls-1" d="m876.86,395.62c-12.3,11.1-17.1,38.7-20.4,54.6-3.6,16.2-5.7,33-7.8,49.5-1.8,12.6-29.7,18-29.4,2.7,1.2-65.1,2.7-130.2,4.2-195.3.3-15,29.7-21.9,29.4-5.7-.6,27.6-1.2,55.2-1.8,83.1,8.4-11.7,19.2-19.8,33.3-21.6,58.5-6.9,63.9,93.9,60.9,130.8-1.5,14.4-30.3,22.2-29.4,5.7.9-15.9-7.5-132.6-39-103.8Z"/><path class="cls-1" d="m963.55,469.42c-4.5-36.6,10.5-83.7,45-101.7,33-17.1,56.1,2.4,67.5,33.6.6,1.2.9,2.7.6,4.2,3.9.9,6.9,3.6,8.1,8.7,4.8,21,11.7,61.8,32.1,73.8,15.3,9-6.6,27.9-19.5,21-14.7-7.8-23.7-23.7-29.7-41.4-9,13.5-21,24.9-36.3,32.7-31.5,16.2-63,6.9-67.8-30.9Zm28.8-13.5c.6,11.7,1.5,27,17.4,28.2,8.4.9,21-10.5,25.8-15.6,13.2-13.2,19.5-30.6,20.4-48.6,0-.9,0-1.5.3-2.1-2.7-.6-5.1-2.4-6.3-5.4-7.8-21.3-22.5-38.7-41.7-13.5-11.7,15.6-16.8,37.8-15.9,57Z"/><path class="cls-1" d="m1148.05,491.32c-29.1-34.8-18.6-98.4,22.8-118.8,1.2-.6,2.4-1.2,3.9-1.5,11.1-5.4,24-7.8,37.5-6,49.2,7.2,70.5,64.2,47.4,105.6-21.6,38.4-79.8,58.8-111.6,20.7Zm13.5-63.6v.3c-1.5,17.4,3.3,36.3,11.1,45.9,22.2,27.3,57.6,6.3,65.1-22.2,6.6-24.3-6-56.4-32.7-61.8-23.7-4.8-38.7,17.1-43.5,37.8Z"/><path class="cls-1" d="m1311.25,411.82c3.6,6.6,36.9,9.9,45.3,13.2,21.3,7.5,49.8,23.1,46.5,49.8-6,49.8-91.2,44.4-114.3,12.6-9.6-13.5,15.9-29.4,24.9-17.4,7.5,9.9,16.5,13.8,28.8,15.3,9,1.2,36,1.5,27-20.1-6.3-14.7-34.8-19.5-48.6-23.4-18.3-5.1-48.6-9.3-39.3-35.4,12.6-35.7,91.5-64.5,106.5-17.4,4.5,13.8-21.3,24.6-26.1,11.1-8.7-26.1-58.2-1.8-50.7,11.7Z"/><path class="cls-1" d="m354.26,763.62l-16.3-56.6h12.1l10.8,44.9,10.3-44.9h12.8l10.6,44.3,10.6-44.3h11.7l-16,56.6h-13.2l-10.1-42.4-9.7,42.4h-13.6Z"/><path class="cls-1" d="m425.46,763.62v-56.6h11.7v56.6h-11.7Zm.4-65.6v-13.2h11.1v13.2h-11.1Z"/><path class="cls-1" d="m446.16,715.82v-8.8l13.2.1v8.6l-13.2.1Zm19.6,48.5c-4,0-7.02-.88-9.05-2.65-2.03-1.77-3.05-4.35-3.05-7.75v-62.4l11.4-1v58.9c0,2.07.3,3.45.9,4.15s1.83,1.05,3.7,1.05c1,0,1.88-.05,2.65-.15.77-.1,1.42-.21,1.95-.35v9.2c-1.47.33-2.93.58-4.4.75-1.47.17-2.83.25-4.1.25Zm8.5-48.5l-14.9-.1v-8.6l14.9-.1v8.8Z"/><path class="cls-1" d="m482.55,763.62v-79h11.7v30c2.27-3.07,4.85-5.3,7.75-6.7,2.9-1.4,6.25-2.1,10.05-2.1,5.73,0,10.4,1.63,14,4.9,3.6,3.27,5.4,8.2,5.4,14.8v38.1h-11.6v-36.7c0-3.33-.95-5.97-2.85-7.9s-4.75-2.9-8.55-2.9c-2.53,0-4.88.55-7.05,1.65-2.17,1.1-3.88,2.68-5.15,4.75-1.27,2.07-1.93,4.53-2,7.4v33.7h-11.7Z"/><path class="cls-1" d="m565.85,763.62v-79h11.6v79h-11.6Z"/><path class="cls-1" d="m614.65,764.62c-5.53,0-10.37-1.22-14.5-3.65-4.13-2.43-7.32-5.83-9.55-10.2-2.23-4.37-3.35-9.48-3.35-15.35s1.13-11.1,3.4-15.5c2.27-4.4,5.47-7.82,9.6-10.25,4.13-2.43,8.97-3.65,14.5-3.65s10.25,1.22,14.35,3.65c4.1,2.43,7.27,5.85,9.5,10.25,2.23,4.4,3.35,9.53,3.35,15.4s-1.12,11.08-3.35,15.45c-2.23,4.37-5.4,7.77-9.5,10.2-4.1,2.43-8.92,3.65-14.45,3.65Zm0-9.8c4.93,0,8.77-1.72,11.5-5.15,2.73-3.43,4.1-8.25,4.1-14.45s-1.38-10.98-4.15-14.35c-2.77-3.37-6.58-5.05-11.45-5.05s-8.78,1.73-11.55,5.2c-2.77,3.47-4.15,8.27-4.15,14.4s1.38,10.9,4.15,14.3c2.77,3.4,6.62,5.1,11.55,5.1Z"/><path class="cls-1" d="m665.66,763.62l-21.8-56.6h12.6l9.1,26c.93,2.6,1.77,4.97,2.5,7.1.73,2.13,1.43,4.25,2.1,6.35.67,2.1,1.37,4.42,2.1,6.95,1-3.47,2.07-6.93,3.2-10.4,1.13-3.47,2.23-6.8,3.3-10l9.2-26h12l-21.4,56.6h-12.9Z"/><path class="cls-1" d="m729.56,764.62c-5.47,0-10.27-1.15-14.4-3.45-4.13-2.3-7.35-5.63-9.65-10-2.3-4.37-3.45-9.62-3.45-15.75s1.08-11.1,3.25-15.5c2.17-4.4,5.27-7.82,9.3-10.25,4.03-2.43,8.88-3.65,14.55-3.65s10.2,1.2,14.2,3.6,7.02,6,9.05,10.8c2.03,4.8,2.78,10.77,2.25,17.9h-42.7v-8.4h35.2l-4.7,3.9c.87-5.67.08-10.22-2.35-13.65-2.43-3.43-6.15-5.15-11.15-5.15-4.53,0-8.23,1.6-11.1,4.8-2.87,3.2-4.3,8.3-4.3,15.3s1.4,11.93,4.2,15.2c2.8,3.27,6.77,4.9,11.9,4.9,3.93,0,7.13-.88,9.6-2.65,2.47-1.77,4-4.25,4.6-7.45l10.2,2.5c-.67,3.4-2.12,6.37-4.35,8.9-2.23,2.53-5.05,4.52-8.45,5.95-3.4,1.43-7.3,2.15-11.7,2.15Z"/><path class="cls-1" d="m758.66,778.02v-6.1h1.9c1.87,0,3.12-.43,3.75-1.3.63-.87.95-1.97.95-3.3v-3.7h-5.7v-12.3h11.6v17.1c0,3.27-.92,5.68-2.75,7.25-1.83,1.57-4.32,2.35-7.45,2.35h-2.3Z"/><path class="cls-1" d="m798.45,715.82v-8.8l13.9.1v8.6l-13.9.1Zm8.2,47.8v-64.5c0-4.67,1.38-8.35,4.15-11.05,2.77-2.7,6.92-4.05,12.45-4.05,1.07,0,2.17.07,3.3.2,1.13.13,2.07.3,2.8.5v9.5h-.6c-.4-.2-.9-.35-1.5-.45-.6-.1-1.27-.15-2-.15-2.33,0-4.12.52-5.35,1.55-1.23,1.03-1.85,2.95-1.85,5.75v62.7h-11.4Zm5.7-47.9v-8.6l17.2-.1v8.8l-17.2-.1Z"/><path class="cls-1" d="m836.85,763.62v-56.6h10.5l.7,8.5c1.47-3,3.35-5.28,5.65-6.85,2.3-1.57,4.95-2.35,7.95-2.35,2,0,3.57.2,4.7.6v11h-.7c-.53-.2-1.17-.35-1.9-.45-.73-.1-1.47-.15-2.2-.15-3.73,0-6.73,1.08-9,3.25-2.27,2.17-3.6,5.12-4,8.85v34.2h-11.7Z"/><path class="cls-1" d="m895.55,764.62c-5.53,0-10.37-1.22-14.5-3.65-4.13-2.43-7.32-5.83-9.55-10.2-2.23-4.37-3.35-9.48-3.35-15.35s1.13-11.1,3.4-15.5c2.27-4.4,5.47-7.82,9.6-10.25,4.13-2.43,8.97-3.65,14.5-3.65s10.25,1.22,14.35,3.65c4.1,2.43,7.27,5.85,9.5,10.25,2.23,4.4,3.35,9.53,3.35,15.4s-1.12,11.08-3.35,15.45c-2.23,4.37-5.4,7.77-9.5,10.2-4.1,2.43-8.92,3.65-14.45,3.65Zm0-9.8c4.93,0,8.77-1.72,11.5-5.15,2.73-3.43,4.1-8.25,4.1-14.45s-1.38-10.98-4.15-14.35c-2.77-3.37-6.58-5.05-11.45-5.05s-8.78,1.73-11.55,5.2c-2.77,3.47-4.15,8.27-4.15,14.4s1.38,10.9,4.15,14.3c2.77,3.4,6.62,5.1,11.55,5.1Z"/><path class="cls-1" d="m932.45,763.62v-56.6h10.5l.8,8.7c1.93-3.33,4.37-5.78,7.3-7.35,2.93-1.57,6.1-2.35,9.5-2.35,3.87,0,7.3.93,10.3,2.8,3,1.87,5.23,4.67,6.7,8.4,1.73-3.6,4.23-6.37,7.5-8.3,3.27-1.93,6.83-2.9,10.7-2.9,6.07,0,10.73,1.75,14,5.25s4.9,8.18,4.9,14.05v38.3h-11.7v-36c0-3.6-.85-6.38-2.55-8.35-1.7-1.97-4.22-2.95-7.55-2.95-2.6,0-4.94.58-7,1.75-2.07,1.17-3.67,2.85-4.8,5.05-1.13,2.2-1.7,4.83-1.7,7.9v32.6h-11.7v-35.3c0-3.53-.82-6.42-2.45-8.65-1.63-2.23-4.22-3.35-7.75-3.35-2.67,0-5,.62-7,1.85-2,1.23-3.55,2.93-4.65,5.1-1.1,2.17-1.65,4.62-1.65,7.35v33h-11.7Z"/><path class="cls-1" d="m1050.45,763.62v-72.9h33.4c5.33,0,9.88.92,13.65,2.75,3.77,1.83,6.65,4.43,8.65,7.8,2,3.37,3,7.32,3,11.85s-1.02,8.57-3.05,11.9c-2.03,3.33-4.95,5.92-8.75,7.75-3.8,1.83-8.37,2.75-13.7,2.75h-22.9v-10.3h23.5c3.73,0,6.77-.98,9.1-2.95,2.33-1.97,3.5-4.98,3.5-9.05s-1.15-7-3.45-9c-2.3-2-5.35-3-9.15-3h-21.9v62.4h-11.9Z"/><path class="cls-1" d="m1141.75,764.62c-5.53,0-10.37-1.22-14.5-3.65-4.13-2.43-7.32-5.83-9.55-10.2-2.23-4.37-3.35-9.48-3.35-15.35s1.13-11.1,3.4-15.5c2.27-4.4,5.47-7.82,9.6-10.25,4.13-2.43,8.96-3.65,14.5-3.65s10.25,1.22,14.35,3.65c4.1,2.43,7.27,5.85,9.5,10.25,2.23,4.4,3.35,9.53,3.35,15.4s-1.12,11.08-3.35,15.45c-2.23,4.37-5.4,7.77-9.5,10.2-4.1,2.43-8.92,3.65-14.45,3.65Zm0-9.8c4.93,0,8.77-1.72,11.5-5.15,2.73-3.43,4.1-8.25,4.1-14.45s-1.38-10.98-4.15-14.35c-2.77-3.37-6.58-5.05-11.45-5.05s-8.78,1.73-11.55,5.2c-2.77,3.47-4.15,8.27-4.15,14.4s1.38,10.9,4.15,14.3c2.77,3.4,6.62,5.1,11.55,5.1Z"/><path class="cls-1" d="m1180.15,763.62v-56.6h11.7v56.6h-11.7Zm.4-65.6v-13.2h11.1v13.2h-11.1Z"/><path class="cls-1" d="m1226.45,764.62c-7.27,0-13.02-1.65-17.25-4.95-4.23-3.3-6.48-7.82-6.75-13.55l11.3-1.3c0,3.33,1.17,6.05,3.5,8.15,2.33,2.1,5.53,3.15,9.6,3.15,3.4,0,6.13-.62,8.2-1.85,2.07-1.23,3.1-3.25,3.1-6.05,0-1.73-.42-3.12-1.25-4.15-.83-1.03-2-1.85-3.5-2.45s-3.25-1.1-5.25-1.5-4.17-.83-6.5-1.3c-3.73-.87-6.87-1.98-9.4-3.35-2.53-1.37-4.43-3.12-5.7-5.25-1.27-2.13-1.9-4.67-1.9-7.6,0-3.4.9-6.33,2.7-8.8,1.8-2.47,4.35-4.38,7.65-5.75,3.3-1.37,7.18-2.05,11.65-2.05s8.35.65,11.65,1.95c3.3,1.3,5.9,3.22,7.8,5.75,1.9,2.54,2.98,5.67,3.25,9.4l-11.2,1.5c0-3.13-.98-5.63-2.95-7.5-1.97-1.87-4.95-2.8-8.95-2.8-3.13,0-5.57.67-7.3,2-1.73,1.33-2.6,3.03-2.6,5.1,0,1.87.55,3.35,1.65,4.45,1.1,1.1,2.8,1.98,5.1,2.65,2.3.67,5.22,1.37,8.75,2.1,2.73.53,5.23,1.18,7.5,1.95,2.27.77,4.2,1.78,5.8,3.05,1.6,1.27,2.83,2.87,3.7,4.8.87,1.93,1.3,4.33,1.3,7.2,0,5.07-1.95,9.17-5.85,12.3-3.9,3.13-9.85,4.7-17.85,4.7Z"/><path class="cls-1" d="m1280.25,764.62c-7.27,0-13.02-1.65-17.25-4.95-4.23-3.3-6.48-7.82-6.75-13.55l11.3-1.3c0,3.33,1.17,6.05,3.5,8.15,2.33,2.1,5.53,3.15,9.6,3.15,3.4,0,6.13-.62,8.2-1.85,2.07-1.23,3.1-3.25,3.1-6.05,0-1.73-.42-3.12-1.25-4.15-.83-1.03-2-1.85-3.5-2.45s-3.25-1.1-5.25-1.5-4.17-.83-6.5-1.3c-3.73-.87-6.87-1.98-9.4-3.35-2.53-1.37-4.43-3.12-5.7-5.25-1.27-2.13-1.9-4.67-1.9-7.6,0-3.4.9-6.33,2.7-8.8,1.8-2.47,4.35-4.38,7.65-5.75,3.3-1.37,7.18-2.05,11.65-2.05s8.35.65,11.65,1.95c3.3,1.3,5.9,3.22,7.8,5.75,1.9,2.54,2.98,5.67,3.25,9.4l-11.2,1.5c0-3.13-.98-5.63-2.95-7.5-1.97-1.87-4.95-2.8-8.95-2.8-3.13,0-5.57.67-7.3,2-1.73,1.33-2.6,3.03-2.6,5.1,0,1.87.55,3.35,1.65,4.45,1.1,1.1,2.8,1.98,5.1,2.65,2.3.67,5.22,1.37,8.75,2.1,2.73.53,5.23,1.18,7.5,1.95,2.27.77,4.2,1.78,5.8,3.05,1.6,1.27,2.83,2.87,3.7,4.8.87,1.93,1.3,4.33,1.3,7.2,0,5.07-1.95,9.17-5.85,12.3-3.9,3.13-9.85,4.7-17.85,4.7Z"/><path class="cls-1" d="m1337.95,764.62c-5.53,0-10.37-1.22-14.5-3.65-4.13-2.43-7.32-5.83-9.55-10.2-2.23-4.37-3.35-9.48-3.35-15.35s1.13-11.1,3.4-15.5c2.27-4.4,5.47-7.82,9.6-10.25,4.13-2.43,8.96-3.65,14.5-3.65s10.25,1.22,14.35,3.65c4.1,2.43,7.27,5.85,9.5,10.25,2.23,4.4,3.35,9.53,3.35,15.4s-1.12,11.08-3.35,15.45c-2.23,4.37-5.4,7.77-9.5,10.2-4.1,2.43-8.92,3.65-14.45,3.65Zm0-9.8c4.93,0,8.77-1.72,11.5-5.15,2.73-3.43,4.1-8.25,4.1-14.45s-1.38-10.98-4.15-14.35c-2.77-3.37-6.58-5.05-11.45-5.05s-8.78,1.73-11.55,5.2c-2.77,3.47-4.15,8.27-4.15,14.4s1.38,10.9,4.15,14.3c2.77,3.4,6.62,5.1,11.55,5.1Z"/><path class="cls-1" d="m1374.85,763.62v-56.6h10.7l.6,8.3c2.33-3.2,4.98-5.55,7.95-7.05,2.97-1.5,6.38-2.25,10.25-2.25,5.73,0,10.4,1.63,14,4.9,3.6,3.27,5.4,8.2,5.4,14.8v37.9h-11.6v-36.5c0-3.33-.95-5.97-2.85-7.9-1.9-1.93-4.75-2.9-8.55-2.9-2.53,0-4.88.55-7.05,1.65-2.17,1.1-3.88,2.68-5.15,4.75-1.27,2.07-1.93,4.5-2,7.3v33.6h-11.7Z"/><path class="cls-1" d="m1436.85,763.62v-72.9h33.4c5.33,0,9.88.92,13.65,2.75,3.77,1.83,6.65,4.43,8.65,7.8,2,3.37,3,7.32,3,11.85s-1.02,8.57-3.05,11.9c-2.03,3.33-4.95,5.92-8.75,7.75-3.8,1.83-8.37,2.75-13.7,2.75h-22.9v-10.3h23.5c3.73,0,6.77-.98,9.1-2.95,2.33-1.97,3.5-4.98,3.5-9.05s-1.15-7-3.45-9c-2.3-2-5.35-3-9.15-3h-21.9v62.4h-11.9Z"/><path class="cls-1" d="m1518.85,764.62c-5.93,0-10.53-1.47-13.8-4.4-3.27-2.93-4.9-6.77-4.9-11.5,0-3.6.82-6.58,2.45-8.95,1.63-2.37,3.8-4.22,6.5-5.55,2.7-1.33,5.68-2.3,8.95-2.9l12-2.2c2.8-.53,4.65-1.32,5.55-2.35.9-1.03,1.35-2.42,1.35-4.15,0-2.27-.8-4.12-2.4-5.55-1.6-1.43-4.43-2.15-8.5-2.15s-7.18.8-9.55,2.4c-2.37,1.6-3.52,4.1-3.45,7.5l-10.9-1.2c.07-5.67,2.3-10.02,6.7-13.05,4.4-3.03,10.17-4.55,17.3-4.55,4.93,0,9.05.65,12.35,1.95,3.3,1.3,5.8,3.23,7.5,5.8,1.7,2.57,2.55,5.75,2.55,9.55v27.5c0,1.93.37,3.18,1.1,3.75.73.57,1.53.85,2.4.85.53,0,.93-.02,1.2-.05.27-.03.43-.08.5-.15h.6v8.2c-.73.33-1.7.58-2.9.75-1.2.17-2.13.25-2.8.25-3,0-5.42-.7-7.25-2.1-1.83-1.4-2.82-3.5-2.95-6.3v-1.6c-1.47,3.07-3.98,5.53-7.55,7.4-3.57,1.87-7.58,2.8-12.05,2.8Zm3.1-9c3.87,0,7.15-.83,9.85-2.5,2.7-1.67,4.48-3.97,5.35-6.9v-11.8l1.1.4c-.73.6-1.77,1.1-3.1,1.5-1.33.4-3.17.83-5.5,1.3l-8.1,1.6c-3.8.73-6.33,1.88-7.6,3.45-1.27,1.57-1.9,3.28-1.9,5.15,0,2.67.93,4.63,2.8,5.9,1.87,1.27,4.23,1.9,7.1,1.9Z"/><path class="cls-1" d="m1561.55,763.62v-56.6h10.5l.7,8.5c1.47-3,3.35-5.28,5.65-6.85,2.3-1.57,4.95-2.35,7.95-2.35,2,0,3.57.2,4.7.6v11h-.7c-.53-.2-1.17-.35-1.9-.45-.73-.1-1.47-.15-2.2-.15-3.73,0-6.73,1.08-9,3.25-2.27,2.17-3.6,5.12-4,8.85v34.2h-11.7Z"/><path class="cls-1" d="m1598.44,763.62v-79h11.6v79h-11.6Z"/><path class="cls-1" d="m1647.34,764.62c-5.47,0-10.27-1.15-14.4-3.45-4.13-2.3-7.35-5.63-9.65-10-2.3-4.37-3.45-9.62-3.45-15.75s1.08-11.1,3.25-15.5c2.17-4.4,5.27-7.82,9.3-10.25,4.03-2.43,8.88-3.65,14.55-3.65s10.2,1.2,14.2,3.6,7.02,6,9.05,10.8c2.03,4.8,2.78,10.77,2.25,17.9h-42.7v-8.4h35.2l-4.7,3.9c.87-5.67.08-10.22-2.35-13.65-2.43-3.43-6.15-5.15-11.15-5.15-4.53,0-8.23,1.6-11.1,4.8-2.87,3.2-4.3,8.3-4.3,15.3s1.4,11.93,4.2,15.2c2.8,3.27,6.77,4.9,11.9,4.9,3.93,0,7.13-.88,9.6-2.65,2.47-1.77,4-4.25,4.6-7.45l10.2,2.5c-.67,3.4-2.12,6.37-4.35,8.9-2.23,2.53-5.05,4.52-8.45,5.95-3.4,1.43-7.3,2.15-11.7,2.15Z"/><path class="cls-1" d="m1681.34,763.62v-56.6h10.5l.7,8.5c1.47-3,3.35-5.28,5.65-6.85,2.3-1.57,4.95-2.35,7.95-2.35,2,0,3.57.2,4.7.6v11h-.7c-.53-.2-1.17-.35-1.9-.45-.73-.1-1.47-.15-2.2-.15-3.73,0-6.73,1.08-9,3.25-2.27,2.17-3.6,5.12-4,8.85v34.2h-11.7Z"/></svg>