<?xml version="1.0" encoding="UTF-8"?><svg id="Layer_1" xmlns="http://www.w3.org/2000/svg" xmlns:xlink="http://www.w3.org/1999/xlink" viewBox="0 0 1739.64 1253.31"><defs><pattern id="cc-jpp3" x="0" y="0" width="56.69" height="56.69" patternTransform="translate(-165.13 -131.42)" patternUnits="userSpaceOnUse" viewBox="0 0 56.69 56.69"><rect width="56.69" height="56.69" style="fill:none; stroke-width:0px;"/><path d="m28.35,14.8c7.48,0,13.55,6.07,13.55,13.55,0-7.48,6.07-13.55,13.55-13.55-7.48,0-13.55-6.07-13.55-13.55,0,7.48-6.07,13.55-13.55,13.55Z" style="fill:none; stroke:#221f1f; stroke-miterlimit:10; stroke-width:2.5px;"/><path d="m14.8,28.35c0-7.48,6.07-13.55,13.55-13.55-7.48,0-13.55-6.07-13.55-13.55,0,7.48-6.07,13.55-13.55,13.55,7.48,0,13.55,6.07,13.55,13.55Z" style="fill:none; stroke:#221f1f; stroke-miterlimit:10; stroke-width:2.5px;"/><path d="m28.35,41.89c-7.48,0-13.55-6.07-13.55-13.55,0,7.48-6.07,13.55-13.55,13.55,7.48,0,13.55,6.07,13.55,13.55,0-7.48,6.07-13.55,13.55-13.55Z" style="fill:none; stroke:#221f1f; stroke-miterlimit:10; stroke-width:2.5px;"/><path d="m41.89,28.35c0,7.48-6.07,13.55-13.55,13.55,7.48,0,13.55,6.07,13.55,13.55,0-7.48,6.07-13.55,13.55-13.55-7.48,0-13.55-6.07-13.55-13.55Z" style="fill:none; stroke:#221f1f; stroke-miterlimit:10; stroke-width:2.5px;"/><path d="m28.35,14.8c0,7.48-6.07,13.55-13.55,13.55,7.48,0,13.55,6.07,13.55,13.55,0-7.48,6.07-13.55,13.55-13.55-7.48,0-13.55-6.07-13.55-13.55Z" style="fill:none; stroke:#221f1f; stroke-miterlimit:10; stroke-width:2.5px;"/><path d="m55.44,14.8c0,7.48-6.07,13.55-13.55,13.55,7.48,0,13.55,6.07,13.55,13.55" style="fill:none; stroke:#221f1f; stroke-miterlimit:10; stroke-width:2.5px;"/><path d="m14.8,1.25c7.48,0,13.55,6.07,13.55,13.55,0-7.48,6.07-13.55,13.55-13.55" style="fill:none; stroke:#221f1f; stroke-miterlimit:10; stroke-width:2.5px;"/><path d="m41.89,55.44c-7.48,0-13.55-6.07-13.55-13.55,0,7.48-6.07,13.55-13.55,13.55" style="fill:none; stroke:#221f1f; stroke-miterlimit:10; stroke-width:2.5px;"/><path d="m1.25,41.89c0-7.48,6.07-13.55,13.55-13.55-7.48,0-13.55-6.07-13.55-13.55" style="fill:none; stroke:#221f1f; stroke-miterlimit:10; stroke-width:2.5px;"/><path d="m41.89,1.25c7.48,0,13.55,6.07,13.55,13.55" style="fill:none; stroke:#221f1f; stroke-miterlimit:10; stroke-width:2.5px;"/><path d="m1.25,14.8C1.25,7.32,7.32,1.25,14.8,1.25" style="fill:none; stroke:#221f1f; stroke-miterlimit:10; stroke-width:2.5px;"/><path d="m14.8,55.44c-7.48,0-13.55-6.07-13.55-13.55" style="fill:none; stroke:#221f1f; stroke-miterlimit:10; stroke-width:2.5px;"/><path d="m55.44,41.89c0,7.48-6.07,13.55-13.55,13.55" style="fill:none; stroke:#221f1f; stroke-miterlimit:10; stroke-width:2.5px;"/></pattern><pattern id="pp_cc_ingredient_back" x="0" y="0" width="28.8" height="28.8" patternTransform="translate(2783.24 2836.5) scale(1.39)" patternUnits="userSpaceOnUse" viewBox="0 0 28.8 28.8"><rect y="0" width="28.8" height="28.8" style="fill:none; stroke-width:0px;"/><path d="m28.8,6.45c-7.53,0-13.65-6.12-13.65-13.65s6.12-13.65,13.65-13.65,13.65,6.12,13.65,13.65-6.12,13.65-13.65,13.65Z" style="fill:#e7dcec; stroke-width:0px;"/><path d="m28.8-20.1c-7.12,0-12.9,5.78-12.9,12.9s5.78,12.9,12.9,12.9S41.7-.08,41.7-7.2s-5.78-12.9-12.9-12.9m0-1.5c7.94,0,14.4,6.46,14.4,14.4s-6.46,14.4-14.4,14.4S14.4.74,14.4-7.2s6.46-14.4,14.4-14.4h0Z" style="fill:#6a50a0; stroke-width:0px;"/><circle cx="28.8" cy="-7.2" r="9.78" style="fill:#e7dcec; stroke-width:0px;"/><path d="m28.8-16.23c-4.99,0-9.03,4.04-9.03,9.03S23.81,1.83,28.8,1.83s9.03-4.04,9.03-9.03-4.04-9.03-9.03-9.03m0-1.5c5.81,0,10.53,4.72,10.53,10.53s-4.72,10.53-10.53,10.53S18.27-1.39,18.27-7.2s4.72-10.53,10.53-10.53h0Z" style="fill:#6a50a0; stroke-width:0px;"/><path d="m0,6.45C-7.53,6.45-13.65.33-13.65-7.2S-7.53-20.85,0-20.85s13.65,6.12,13.65,13.65S7.53,6.45,0,6.45Z" style="fill:#e7dcec; stroke-width:0px;"/><path d="m0-20.1c-7.12,0-12.9,5.78-12.9,12.9S-7.12,5.7,0,5.7,12.9-.08,12.9-7.2,7.12-20.1,0-20.1M0-21.6c7.94,0,14.4,6.46,14.4,14.4S7.94,7.2,0,7.2-14.4.74-14.4-7.2-7.94-21.6,0-21.6H0Z" style="fill:#6a50a0; stroke-width:0px;"/><circle cx="0" cy="-7.2" r="9.78" style="fill:#e7dcec; stroke-width:0px;"/><path d="m0-16.23c-4.99,0-9.03,4.04-9.03,9.03S-4.99,1.83,0,1.83,9.03-2.21,9.03-7.2,4.99-16.23,0-16.23M0-17.73c5.81,0,10.53,4.72,10.53,10.53S5.81,3.33,0,3.33-10.53-1.39-10.53-7.2-5.81-17.73,0-17.73H0Z" style="fill:#6a50a0; stroke-width:0px;"/><path d="m14.4,13.65C6.87,13.65.75,7.53.75,0s6.12-13.65,13.65-13.65S28.05-7.53,28.05,0s-6.12,13.65-13.65,13.65Z" style="fill:#e7dcec; stroke-width:0px;"/><path d="m14.4-12.9C7.28-12.9,1.5-7.12,1.5,0s5.78,12.9,12.9,12.9S27.3,7.12,27.3,0s-5.78-12.9-12.9-12.9m0-1.5C22.34-14.4,28.8-7.94,28.8,0s-6.46,14.4-14.4,14.4S0,7.94,0,0s6.46-14.4,14.4-14.4h0Z" style="fill:#6a50a0; stroke-width:0px;"/><circle cx="14.4" cy="0" r="9.78" style="fill:#e7dcec; stroke-width:0px;"/><path d="m14.4-9.03C9.41-9.03,5.37-4.99,5.37,0s4.04,9.03,9.03,9.03S23.43,4.99,23.43,0s-4.04-9.03-9.03-9.03m0-1.5C20.21-10.53,24.93-5.81,24.93,0s-4.72,10.53-10.53,10.53S3.87,5.81,3.87,0s4.72-10.53,10.53-10.53h0Z" style="fill:#6a50a0; stroke-width:0px;"/><circle cx="14.4" cy="0" r="5.91" style="fill:#e7dcec; stroke-width:0px;"/><path d="m14.4-5.16C11.55-5.16,9.24-2.85,9.24,0s2.31,5.16,5.16,5.16S19.56,2.85,19.56,0s-2.31-5.16-5.16-5.16m0-1.5C18.07-6.66,21.06-3.67,21.06,0s-2.99,6.66-6.66,6.66S7.74,3.67,7.74,0s2.99-6.66,6.66-6.66h0Z" style="fill:#6a50a0; stroke-width:0px;"/><circle cx="14.4" cy="0" r="2.04" style="fill:#e7dcec; stroke-width:0px;"/><path d="m14.4-1.29C13.69-1.29,13.11-.71,13.11,0s.58,1.29,1.29,1.29S15.69.71,15.69,0s-.58-1.29-1.29-1.29m0-1.5C15.94-2.79,17.19-1.54,17.19,0s-1.25,2.79-2.79,2.79S11.61,1.54,11.61,0s1.25-2.79,2.79-2.79h0Z" style="fill:#6a50a0; stroke-width:0px;"/><path d="m28.8,20.85c-7.53,0-13.65-6.12-13.65-13.65s6.12-13.65,13.65-13.65S42.45-.33,42.45,7.2s-6.12,13.65-13.65,13.65Z" style="fill:#e7dcec; stroke-width:0px;"/><path d="m28.8-5.7C21.68-5.7,15.9.08,15.9,7.2s5.78,12.9,12.9,12.9,12.9-5.78,12.9-12.9-5.78-12.9-12.9-12.9m0-1.5c7.94,0,14.4,6.46,14.4,14.4s-6.46,14.4-14.4,14.4-14.4-6.46-14.4-14.4,6.46-14.4,14.4-14.4h0Z" style="fill:#6a50a0; stroke-width:0px;"/><circle cx="28.8" cy="7.2" r="9.78" style="fill:#e7dcec; stroke-width:0px;"/><path d="m28.8-1.83c-4.99,0-9.03,4.04-9.03,9.03s4.04,9.03,9.03,9.03,9.03-4.04,9.03-9.03S33.79-1.83,28.8-1.83m0-1.5c5.81,0,10.53,4.72,10.53,10.53s-4.72,10.53-10.53,10.53-10.53-4.72-10.53-10.53S22.99-3.33,28.8-3.33h0Z" style="fill:#6a50a0; stroke-width:0px;"/><circle cx="28.8" cy="7.2" r="5.91" style="fill:#e7dcec; stroke-width:0px;"/><path d="m28.8,2.04c-2.85,0-5.16,2.31-5.16,5.16s2.31,5.16,5.16,5.16,5.16-2.31,5.16-5.16-2.31-5.16-5.16-5.16m0-1.5c3.67,0,6.66,2.99,6.66,6.66s-2.99,6.66-6.66,6.66-6.66-2.99-6.66-6.66S25.13.54,28.8.54h0Z" style="fill:#6a50a0; stroke-width:0px;"/><circle cx="28.8" cy="7.2" r="2.04" style="fill:#e7dcec; stroke-width:0px;"/><path d="m28.8,5.91c-.71,0-1.29.58-1.29,1.29s.58,1.29,1.29,1.29,1.29-.58,1.29-1.29-.58-1.29-1.29-1.29m0-1.5c1.54,0,2.79,1.25,2.79,2.79s-1.25,2.79-2.79,2.79-2.79-1.25-2.79-2.79,1.25-2.79,2.79-2.79h0Z" style="fill:#6a50a0; stroke-width:0px;"/><path d="m0,20.85c-7.53,0-13.65-6.12-13.65-13.65S-7.53-6.45,0-6.45,13.65-.33,13.65,7.2,7.53,20.85,0,20.85Z" style="fill:#e7dcec; stroke-width:0px;"/><path d="m0-5.7C-7.12-5.7-12.9.08-12.9,7.2S-7.12,20.1,0,20.1s12.9-5.78,12.9-12.9S7.12-5.7,0-5.7M0-7.2C7.94-7.2,14.4-.74,14.4,7.2S7.94,21.6,0,21.6s-14.4-6.46-14.4-14.4S-7.94-7.2,0-7.2H0Z" style="fill:#6a50a0; stroke-width:0px;"/><circle cx="0" cy="7.2" r="9.78" style="fill:#e7dcec; stroke-width:0px;"/><path d="m0-1.83C-4.99-1.83-9.03,2.21-9.03,7.2S-4.99,16.23,0,16.23s9.03-4.04,9.03-9.03S4.99-1.83,0-1.83M0-3.33C5.81-3.33,10.53,1.39,10.53,7.2S5.81,17.73,0,17.73s-10.53-4.72-10.53-10.53S-5.81-3.33,0-3.33H0Z" style="fill:#6a50a0; stroke-width:0px;"/><circle cx="0" cy="7.2" r="5.91" style="fill:#e7dcec; stroke-width:0px;"/><path d="m0,2.04c-2.85,0-5.16,2.31-5.16,5.16S-2.85,12.36,0,12.36s5.16-2.31,5.16-5.16S2.85,2.04,0,2.04M0,.54c3.67,0,6.66,2.99,6.66,6.66S3.67,13.86,0,13.86s-6.66-2.99-6.66-6.66S-3.67.54,0,.54H0Z" style="fill:#6a50a0; stroke-width:0px;"/><circle cx="0" cy="7.2" r="2.04" style="fill:#e7dcec; stroke-width:0px;"/><path d="m0,5.91c-.71,0-1.29.58-1.29,1.29S-.71,8.49,0,8.49s1.29-.58,1.29-1.29S.71,5.91,0,5.91M0,4.41c1.54,0,2.79,1.25,2.79,2.79S1.54,9.99,0,9.99s-2.79-1.25-2.79-2.79S-1.54,4.41,0,4.41H0Z" style="fill:#6a50a0; stroke-width:0px;"/><path d="m14.4,28.05C6.87,28.05.75,21.93.75,14.4S6.87.75,14.4.75s13.65,6.12,13.65,13.65-6.12,13.65-13.65,13.65Z" style="fill:#e7dcec; stroke-width:0px;"/><path d="m14.4,1.5C7.28,1.5,1.5,7.28,1.5,14.4s5.78,12.9,12.9,12.9,12.9-5.78,12.9-12.9S21.52,1.5,14.4,1.5M14.4,0C22.34,0,28.8,6.46,28.8,14.4s-6.46,14.4-14.4,14.4S0,22.34,0,14.4,6.46,0,14.4,0h0Z" style="fill:#6a50a0; stroke-width:0px;"/><circle cx="14.4" cy="14.4" r="9.78" style="fill:#e7dcec; stroke-width:0px;"/><path d="m14.4,5.37c-4.99,0-9.03,4.04-9.03,9.03s4.04,9.03,9.03,9.03,9.03-4.04,9.03-9.03-4.04-9.03-9.03-9.03m0-1.5c5.81,0,10.53,4.72,10.53,10.53s-4.72,10.53-10.53,10.53S3.87,20.21,3.87,14.4,8.59,3.87,14.4,3.87h0Z" style="fill:#6a50a0; stroke-width:0px;"/><circle cx="14.4" cy="14.4" r="5.91" style="fill:#e7dcec; stroke-width:0px;"/><path d="m14.4,9.24c-2.85,0-5.16,2.31-5.16,5.16s2.31,5.16,5.16,5.16,5.16-2.31,5.16-5.16-2.31-5.16-5.16-5.16m0-1.5c3.67,0,6.66,2.99,6.66,6.66s-2.99,6.66-6.66,6.66-6.66-2.99-6.66-6.66,2.99-6.66,6.66-6.66h0Z" style="fill:#6a50a0; stroke-width:0px;"/><circle cx="14.4" cy="14.4" r="2.04" style="fill:#e7dcec; stroke-width:0px;"/><path d="m14.4,13.11c-.71,0-1.29.58-1.29,1.29s.58,1.29,1.29,1.29,1.29-.58,1.29-1.29-.58-1.29-1.29-1.29m0-1.5c1.54,0,2.79,1.25,2.79,2.79s-1.25,2.79-2.79,2.79-2.79-1.25-2.79-2.79,1.25-2.79,2.79-2.79h0Z" style="fill:#6a50a0; stroke-width:0px;"/><path d="m28.8,35.25c-7.53,0-13.65-6.12-13.65-13.65s6.12-13.65,13.65-13.65,13.65,6.12,13.65,13.65-6.12,13.65-13.65,13.65Z" style="fill:#e7dcec; stroke-width:0px;"/><path d="m28.8,8.7c-7.12,0-12.9,5.78-12.9,12.9s5.78,12.9,12.9,12.9,12.9-5.78,12.9-12.9-5.78-12.9-12.9-12.9m0-1.5c7.94,0,14.4,6.46,14.4,14.4s-6.46,14.4-14.4,14.4-14.4-6.46-14.4-14.4,6.46-14.4,14.4-14.4h0Z" style="fill:#6a50a0; stroke-width:0px;"/><circle cx="28.8" cy="21.6" r="9.78" style="fill:#e7dcec; stroke-width:0px;"/><path d="m28.8,12.57c-4.99,0-9.03,4.04-9.03,9.03s4.04,9.03,9.03,9.03,9.03-4.04,9.03-9.03-4.04-9.03-9.03-9.03m0-1.5c5.81,0,10.53,4.72,10.53,10.53s-4.72,10.53-10.53,10.53-10.53-4.72-10.53-10.53,4.72-10.53,10.53-10.53h0Z" style="fill:#6a50a0; stroke-width:0px;"/><circle cx="28.8" cy="21.6" r="5.91" style="fill:#e7dcec; stroke-width:0px;"/><path d="m28.8,16.44c-2.85,0-5.16,2.31-5.16,5.16s2.31,5.16,5.16,5.16,5.16-2.31,5.16-5.16-2.31-5.16-5.16-5.16m0-1.5c3.67,0,6.66,2.99,6.66,6.66s-2.99,6.66-6.66,6.66-6.66-2.99-6.66-6.66,2.99-6.66,6.66-6.66h0Z" style="fill:#6a50a0; stroke-width:0px;"/><circle cx="28.8" cy="21.6" r="2.04" style="fill:#e7dcec; stroke-width:0px;"/><path d="m28.8,20.31c-.71,0-1.29.58-1.29,1.29s.58,1.29,1.29,1.29,1.29-.58,1.29-1.29-.58-1.29-1.29-1.29m0-1.5c1.54,0,2.79,1.25,2.79,2.79s-1.25,2.79-2.79,2.79-2.79-1.25-2.79-2.79,1.25-2.79,2.79-2.79h0Z" style="fill:#6a50a0; stroke-width:0px;"/><path d="m0,35.25c-7.53,0-13.65-6.12-13.65-13.65S-7.53,7.95,0,7.95s13.65,6.12,13.65,13.65S7.53,35.25,0,35.25Z" style="fill:#e7dcec; stroke-width:0px;"/><path d="m0,8.7c-7.12,0-12.9,5.78-12.9,12.9S-7.12,34.5,0,34.5s12.9-5.78,12.9-12.9S7.12,8.7,0,8.7M0,7.2c7.94,0,14.4,6.46,14.4,14.4S7.94,36,0,36s-14.4-6.46-14.4-14.4S-7.94,7.2,0,7.2H0Z" style="fill:#6a50a0; stroke-width:0px;"/><circle cx="0" cy="21.6" r="9.78" style="fill:#e7dcec; stroke-width:0px;"/><path d="m0,12.57c-4.99,0-9.03,4.04-9.03,9.03S-4.99,30.63,0,30.63s9.03-4.04,9.03-9.03S4.99,12.57,0,12.57M0,11.07c5.81,0,10.53,4.72,10.53,10.53S5.81,32.13,0,32.13s-10.53-4.72-10.53-10.53S-5.81,11.07,0,11.07H0Z" style="fill:#6a50a0; stroke-width:0px;"/><circle cx="0" cy="21.6" r="5.91" style="fill:#e7dcec; stroke-width:0px;"/><path d="m0,16.44c-2.85,0-5.16,2.31-5.16,5.16S-2.85,26.76,0,26.76s5.16-2.31,5.16-5.16S2.85,16.44,0,16.44M0,14.94c3.67,0,6.66,2.99,6.66,6.66S3.67,28.26,0,28.26s-6.66-2.99-6.66-6.66S-3.67,14.94,0,14.94H0Z" style="fill:#6a50a0; stroke-width:0px;"/><circle cx="0" cy="21.6" r="2.04" style="fill:#e7dcec; stroke-width:0px;"/><path d="m0,20.31c-.71,0-1.29.58-1.29,1.29S-.71,22.89,0,22.89s1.29-.58,1.29-1.29S.71,20.31,0,20.31M0,18.81c1.54,0,2.79,1.25,2.79,2.79S1.54,24.39,0,24.39s-2.79-1.25-2.79-2.79S-1.54,18.81,0,18.81H0Z" style="fill:#6a50a0; stroke-width:0px;"/><path d="m14.4,42.45c-7.53,0-13.65-6.12-13.65-13.65s6.12-13.65,13.65-13.65,13.65,6.12,13.65,13.65-6.12,13.65-13.65,13.65Z" style="fill:#e7dcec; stroke-width:0px;"/><path d="m14.4,15.9c-7.12,0-12.9,5.78-12.9,12.9s5.78,12.9,12.9,12.9,12.9-5.78,12.9-12.9-5.78-12.9-12.9-12.9m0-1.5c7.94,0,14.4,6.46,14.4,14.4s-6.46,14.4-14.4,14.4S0,36.74,0,28.8s6.46-14.4,14.4-14.4h0Z" style="fill:#6a50a0; stroke-width:0px;"/><circle cx="14.4" cy="28.8" r="9.78" style="fill:#e7dcec; stroke-width:0px;"/><path d="m14.4,19.77c-4.99,0-9.03,4.04-9.03,9.03s4.04,9.03,9.03,9.03,9.03-4.04,9.03-9.03-4.04-9.03-9.03-9.03m0-1.5c5.81,0,10.53,4.72,10.53,10.53s-4.72,10.53-10.53,10.53-10.53-4.72-10.53-10.53,4.72-10.53,10.53-10.53h0Z" style="fill:#6a50a0; stroke-width:0px;"/><circle cx="14.4" cy="28.8" r="5.91" style="fill:#e7dcec; stroke-width:0px;"/><path d="m14.4,23.64c-2.85,0-5.16,2.31-5.16,5.16s2.31,5.16,5.16,5.16,5.16-2.31,5.16-5.16-2.31-5.16-5.16-5.16m0-1.5c3.67,0,6.66,2.99,6.66,6.66s-2.99,6.66-6.66,6.66-6.66-2.99-6.66-6.66,2.99-6.66,6.66-6.66h0Z" style="fill:#6a50a0; stroke-width:0px;"/><circle cx="14.4" cy="28.8" r="2.04" style="fill:#e7dcec; stroke-width:0px;"/><path d="m14.4,27.51c-.71,0-1.29.58-1.29,1.29s.58,1.29,1.29,1.29,1.29-.58,1.29-1.29-.58-1.29-1.29-1.29m0-1.5c1.54,0,2.79,1.25,2.79,2.79s-1.25,2.79-2.79,2.79-2.79-1.25-2.79-2.79,1.25-2.79,2.79-2.79h0Z" style="fill:#6a50a0; stroke-width:0px;"/><path d="m28.8,49.65c-7.53,0-13.65-6.12-13.65-13.65s6.12-13.65,13.65-13.65,13.65,6.12,13.65,13.65-6.12,13.65-13.65,13.65Z" style="fill:#e7dcec; stroke-width:0px;"/><path d="m28.8,23.1c-7.12,0-12.9,5.78-12.9,12.9s5.78,12.9,12.9,12.9,12.9-5.78,12.9-12.9-5.78-12.9-12.9-12.9m0-1.5c7.94,0,14.4,6.46,14.4,14.4s-6.46,14.4-14.4,14.4-14.4-6.46-14.4-14.4,6.46-14.4,14.4-14.4h0Z" style="fill:#6a50a0; stroke-width:0px;"/><circle cx="28.8" cy="36" r="9.78" style="fill:#e7dcec; stroke-width:0px;"/><path d="m28.8,26.97c-4.99,0-9.03,4.04-9.03,9.03s4.04,9.03,9.03,9.03,9.03-4.04,9.03-9.03-4.04-9.03-9.03-9.03m0-1.5c5.81,0,10.53,4.72,10.53,10.53s-4.72,10.53-10.53,10.53-10.53-4.72-10.53-10.53,4.72-10.53,10.53-10.53h0Z" style="fill:#6a50a0; stroke-width:0px;"/><path d="m0,49.65c-7.53,0-13.65-6.12-13.65-13.65S-7.53,22.35,0,22.35s13.65,6.12,13.65,13.65S7.53,49.65,0,49.65Z" style="fill:#e7dcec; stroke-width:0px;"/><path d="m0,23.1c-7.12,0-12.9,5.78-12.9,12.9S-7.12,48.9,0,48.9s12.9-5.78,12.9-12.9S7.12,23.1,0,23.1M0,21.6c7.94,0,14.4,6.46,14.4,14.4S7.94,50.4,0,50.4s-14.4-6.46-14.4-14.4S-7.94,21.6,0,21.6H0Z" style="fill:#6a50a0; stroke-width:0px;"/><circle cx="0" cy="36" r="9.78" style="fill:#e7dcec; stroke-width:0px;"/><path d="m0,26.97c-4.99,0-9.03,4.04-9.03,9.03S-4.99,45.03,0,45.03s9.03-4.04,9.03-9.03S4.99,26.97,0,26.97M0,25.47c5.81,0,10.53,4.72,10.53,10.53S5.81,46.53,0,46.53s-10.53-4.72-10.53-10.53S-5.81,25.47,0,25.47H0Z" style="fill:#6a50a0; stroke-width:0px;"/></pattern></defs><rect x="97.32" y="15" width="474" height="474" style="fill:#b82020; stroke-width:0px;"/><path d="m556.32,30v444H112.32V30h444m30-30H82.32v504h504V0h0Z" style="stroke-width:0px;"/><path d="m283.05,234.4v-43.74h20.88c4.36,0,7.72,1.04,10.08,3.12,2.36,2.08,3.54,4.76,3.54,8.04,0,2.4-.68,4.5-2.04,6.3-1.36,1.8-3.56,3.14-6.6,4.02v-.66c3.32.68,5.79,2,7.41,3.96,1.62,1.96,2.43,4.24,2.43,6.84s-.62,4.63-1.86,6.45c-1.24,1.82-2.99,3.22-5.25,4.2-2.26.98-4.95,1.47-8.07,1.47h-20.52Zm7.14-5.1l-1.02-1.02h13.68c1.92,0,3.5-.27,4.74-.81,1.24-.54,2.15-1.31,2.73-2.31.58-1,.87-2.18.87-3.54,0-2.12-.69-3.75-2.07-4.89-1.38-1.14-3.47-1.71-6.27-1.71h-13.62v-5.94h13.38c2.6,0,4.51-.56,5.73-1.68,1.22-1.12,1.83-2.6,1.83-4.44,0-2.08-.69-3.64-2.07-4.68-1.38-1.04-3.21-1.56-5.49-1.56h-13.44l1.02-.96v33.54Z" style="fill:#fff; stroke-width:0px;"/><path d="m340.11,235.01c-3.32,0-6.22-.73-8.7-2.19-2.48-1.46-4.39-3.5-5.73-6.12-1.34-2.62-2.01-5.69-2.01-9.21s.68-6.66,2.04-9.3c1.36-2.64,3.28-4.69,5.76-6.15,2.48-1.46,5.38-2.19,8.7-2.19s6.15.73,8.61,2.19c2.46,1.46,4.36,3.51,5.7,6.15,1.34,2.64,2.01,5.72,2.01,9.24s-.67,6.65-2.01,9.27c-1.34,2.62-3.24,4.66-5.7,6.12-2.46,1.46-5.35,2.19-8.67,2.19Zm0-5.88c2.96,0,5.26-1.03,6.9-3.09,1.64-2.06,2.46-4.95,2.46-8.67s-.83-6.59-2.49-8.61c-1.66-2.02-3.95-3.03-6.87-3.03s-5.27,1.04-6.93,3.12c-1.66,2.08-2.49,4.96-2.49,8.64s.83,6.54,2.49,8.58c1.66,2.04,3.97,3.06,6.93,3.06Z" style="fill:#fff; stroke-width:0px;"/><path d="m357.81,234.4l12.06-17.64-11.16-16.32h7.86l7.98,12.66h-.96l7.98-12.66h7.68l-11.04,16.08,12.06,17.88h-7.74l-9.06-14.1h1.02l-9.06,14.1h-7.62Z" style="fill:#fff; stroke-width:0px;"/><path d="m172.05,306.4l-9.78-33.96h7.26l6.48,26.94,6.18-26.94h7.68l6.36,26.58,6.36-26.58h7.02l-9.6,33.96h-7.92l-6.06-25.44-5.82,25.44h-8.16Z" style="fill:#fff; stroke-width:0px;"/><path d="m215.43,306.4v-33.96h7.02v33.96h-7.02Zm.24-39.36v-7.92h6.66v7.92h-6.66Z" style="fill:#fff; stroke-width:0px;"/><path d="m228.51,277.72v-5.28l7.92.06v5.16l-7.92.06Zm11.76,29.1c-2.4,0-4.21-.53-5.43-1.59-1.22-1.06-1.83-2.61-1.83-4.65v-37.44l6.84-.6v35.34c0,1.24.18,2.07.54,2.49.36.42,1.1.63,2.22.63.6,0,1.13-.03,1.59-.09.46-.06.85-.13,1.17-.21v5.52c-.88.2-1.76.35-2.64.45-.88.1-1.7.15-2.46.15Zm5.1-29.1l-8.94-.06v-5.16l8.94-.06v5.28Z" style="fill:#fff; stroke-width:0px;"/><path d="m251.01,306.4v-47.4h7.02v18c1.36-1.84,2.91-3.18,4.65-4.02s3.75-1.26,6.03-1.26c3.44,0,6.24.98,8.4,2.94,2.16,1.96,3.24,4.92,3.24,8.88v22.86h-6.96v-22.02c0-2-.57-3.58-1.71-4.74s-2.85-1.74-5.13-1.74c-1.52,0-2.93.33-4.23.99-1.3.66-2.33,1.61-3.09,2.85-.76,1.24-1.16,2.72-1.2,4.44v20.22h-7.02Z" style="fill:#fff; stroke-width:0px;"/><path d="m298.23,268.84v-6.18h36.72v6.18h-36.72Zm14.88,37.56v-38.52h7.14v38.52h-7.14Z" style="fill:#fff; stroke-width:0px;"/><path d="m348.51,307c-3.32,0-6.22-.73-8.7-2.19-2.48-1.46-4.39-3.5-5.73-6.12-1.34-2.62-2.01-5.69-2.01-9.21s.68-6.66,2.04-9.3c1.36-2.64,3.28-4.69,5.76-6.15,2.48-1.46,5.38-2.19,8.7-2.19s6.15.73,8.61,2.19c2.46,1.46,4.36,3.51,5.7,6.15,1.34,2.64,2.01,5.72,2.01,9.24s-.67,6.65-2.01,9.27c-1.34,2.62-3.24,4.66-5.7,6.12-2.46,1.46-5.35,2.19-8.67,2.19Zm0-5.88c2.96,0,5.26-1.03,6.9-3.09,1.64-2.06,2.46-4.95,2.46-8.67s-.83-6.59-2.49-8.61c-1.66-2.02-3.95-3.03-6.87-3.03s-5.27,1.04-6.93,3.12c-1.66,2.08-2.49,4.96-2.49,8.64s.83,6.54,2.49,8.58c1.66,2.04,3.97,3.06,6.93,3.06Z" style="fill:#fff; stroke-width:0px;"/><path d="m371.31,306.4v-47.4h7.02v47.4h-7.02Zm22.86,0l-10.86-16.86-5.7,5.34.06-7.8,14.82-14.64h8.82l-13.8,13.08v-1.62l14.94,22.5h-8.28Z" style="fill:#fff; stroke-width:0px;"/><path d="m419.67,307c-3.28,0-6.16-.69-8.64-2.07-2.48-1.38-4.41-3.38-5.79-6-1.38-2.62-2.07-5.77-2.07-9.45s.65-6.66,1.95-9.3c1.3-2.64,3.16-4.69,5.58-6.15,2.42-1.46,5.33-2.19,8.73-2.19s6.12.72,8.52,2.16c2.4,1.44,4.21,3.6,5.43,6.48,1.22,2.88,1.67,6.46,1.35,10.74h-25.62v-5.04h21.12l-2.82,2.34c.52-3.4.05-6.13-1.41-8.19-1.46-2.06-3.69-3.09-6.69-3.09-2.72,0-4.94.96-6.66,2.88-1.72,1.92-2.58,4.98-2.58,9.18s.84,7.16,2.52,9.12c1.68,1.96,4.06,2.94,7.14,2.94,2.36,0,4.28-.53,5.76-1.59,1.48-1.06,2.4-2.55,2.76-4.47l6.12,1.5c-.4,2.04-1.27,3.82-2.61,5.34-1.34,1.52-3.03,2.71-5.07,3.57-2.04.86-4.38,1.29-7.02,1.29Z" style="fill:#fff; stroke-width:0px;"/><path d="m440.73,306.4v-33.96h6.42l.36,4.98c1.4-1.92,2.99-3.33,4.77-4.23,1.78-.9,3.83-1.35,6.15-1.35,3.44,0,6.24.98,8.4,2.94,2.16,1.96,3.24,4.92,3.24,8.88v22.74h-6.96v-21.9c0-2-.57-3.58-1.71-4.74-1.14-1.16-2.85-1.74-5.13-1.74-1.52,0-2.93.33-4.23.99-1.3.66-2.33,1.61-3.09,2.85-.76,1.24-1.16,2.7-1.2,4.38v20.16h-7.02Z" style="fill:#fff; stroke-width:0px;"/><path d="m490.59,307c-4.36,0-7.81-.99-10.35-2.97-2.54-1.98-3.89-4.69-4.05-8.13l6.78-.78c0,2,.7,3.63,2.1,4.89,1.4,1.26,3.32,1.89,5.76,1.89,2.04,0,3.68-.37,4.92-1.11,1.24-.74,1.86-1.95,1.86-3.63,0-1.04-.25-1.87-.75-2.49-.5-.62-1.2-1.11-2.1-1.47-.9-.36-1.95-.66-3.15-.9-1.2-.24-2.5-.5-3.9-.78-2.24-.52-4.12-1.19-5.64-2.01-1.52-.82-2.66-1.87-3.42-3.15-.76-1.28-1.14-2.8-1.14-4.56,0-2.04.54-3.8,1.62-5.28,1.08-1.48,2.61-2.63,4.59-3.45,1.98-.82,4.31-1.23,6.99-1.23s5.01.39,6.99,1.17c1.98.78,3.54,1.93,4.68,3.45,1.14,1.52,1.79,3.4,1.95,5.64l-6.72.9c0-1.88-.59-3.38-1.77-4.5-1.18-1.12-2.97-1.68-5.37-1.68-1.88,0-3.34.4-4.38,1.2-1.04.8-1.56,1.82-1.56,3.06,0,1.12.33,2.01.99,2.67.66.66,1.68,1.19,3.06,1.59,1.38.4,3.13.82,5.25,1.26,1.64.32,3.14.71,4.5,1.17,1.36.46,2.52,1.07,3.48,1.83.96.76,1.7,1.72,2.22,2.88.52,1.16.78,2.6.78,4.32,0,3.04-1.17,5.5-3.51,7.38-2.34,1.88-5.91,2.82-10.71,2.82Z" style="fill:#fff; stroke-width:0px;"/><rect x="807.32" y="2" width="850" height="500" rx="20" ry="20" style="fill:#e6e6e6; stroke-width:0px;"/><path d="m1067.88,59.33v-26.24h10.71c2.49,0,4.62.54,6.4,1.62,1.77,1.08,3.14,2.6,4.1,4.57.96,1.97,1.44,4.28,1.44,6.95s-.47,4.87-1.4,6.84c-.93,1.97-2.29,3.5-4.06,4.61s-3.93,1.66-6.47,1.66h-10.71Zm3.74-2.59l-.79-.79h7.66c1.73,0,3.19-.4,4.39-1.19,1.2-.79,2.11-1.92,2.75-3.38.63-1.46.95-3.19.95-5.18s-.32-3.75-.97-5.2c-.65-1.45-1.57-2.57-2.77-3.35-1.2-.78-2.65-1.17-4.35-1.17h-7.66l.79-.79v21.06Z" style="stroke-width:0px;"/><path d="m1094.55,59.33v-20.27h3.31l.22,2.99c.53-1.03,1.2-1.82,2.03-2.38s1.78-.83,2.86-.83c.74,0,1.29.07,1.65.22v3.49h-.25c-.19-.07-.41-.13-.67-.16s-.5-.05-.74-.05c-1.37,0-2.46.42-3.29,1.26-.83.84-1.3,1.97-1.42,3.38v12.35h-3.7Z" style="stroke-width:0px;"/><path d="m1112.78,59.69c-2.11,0-3.75-.52-4.91-1.57s-1.74-2.41-1.74-4.09c0-1.34.31-2.44.92-3.28.61-.84,1.41-1.49,2.39-1.96.98-.47,2.05-.81,3.2-1.03l4.24-.79c1.08-.19,1.78-.49,2.12-.88s.5-.92.5-1.57c0-.84-.3-1.54-.9-2.11-.6-.56-1.69-.85-3.27-.85s-2.76.3-3.67.9c-.91.6-1.35,1.52-1.33,2.77l-3.49-.36c.05-1.99.84-3.52,2.39-4.59s3.58-1.6,6.09-1.6c1.68,0,3.1.22,4.26.67,1.16.44,2.05,1.12,2.66,2.03.61.91.92,2.05.92,3.42v10.22c0,.72.13,1.19.4,1.4.26.22.55.32.86.32.19,0,.33,0,.43-.02.09-.01.16-.03.18-.05h.21v2.63c-.24.1-.56.17-.95.22-.4.05-.69.07-.88.07-1.03,0-1.86-.25-2.5-.76-.64-.5-.95-1.27-.95-2.3v-.65c-.5,1.13-1.41,2.04-2.73,2.74-1.32.7-2.8,1.04-4.46,1.04Zm.93-2.95c1.44,0,2.68-.31,3.72-.92,1.04-.61,1.74-1.47,2.1-2.57v-4.64l.39.14c-.24.24-.62.43-1.13.58-.52.14-1.24.31-2.17.5l-2.98.61c-1.51.31-2.51.77-3,1.37-.49.6-.74,1.25-.74,1.94,0,1.03.36,1.79,1.08,2.27.72.48,1.63.72,2.73.72Z" style="stroke-width:0px;"/><path d="m1131.72,59.33l-5.9-20.27h3.85l4.13,16.63,3.88-16.63h4.13l3.99,16.45,4.06-16.45h3.7l-5.75,20.27h-4.21l-3.85-15.84-3.7,15.84h-4.35Z" style="stroke-width:0px;"/><path d="m1157.14,59.33v-20.27h3.7v20.27h-3.7Zm.18-23.62v-4.68h3.38v4.68h-3.38Z" style="stroke-width:0px;"/><path d="m1167.02,59.33v-20.27h3.38l.22,3.06c.86-1.18,1.83-2.04,2.91-2.59,1.08-.55,2.31-.83,3.7-.83,2.04,0,3.71.58,5.01,1.75,1.31,1.16,1.96,2.95,1.96,5.35v13.54h-3.67v-13.18c0-1.27-.36-2.28-1.08-3.02-.72-.74-1.81-1.12-3.27-1.12-.98,0-1.89.21-2.73.63-.84.42-1.5,1.03-2,1.82-.49.79-.74,1.74-.74,2.84v12.02h-3.7Z" style="stroke-width:0px;"/><path d="m1197.22,65.67c-2.37,0-4.26-.52-5.66-1.55-1.4-1.03-2.2-2.39-2.39-4.07l3.34-.79c.1.89.37,1.6.81,2.12s1.02.91,1.74,1.13c.72.23,1.5.34,2.34.34,1.65,0,2.98-.39,3.99-1.17,1.01-.78,1.51-2.06,1.51-3.83v-3.67c-.62,1.1-1.47,1.9-2.55,2.39-1.08.49-2.34.74-3.78.74-1.7,0-3.18-.38-4.44-1.15-1.26-.77-2.22-1.84-2.89-3.22-.67-1.38-1.01-2.99-1.01-4.84s.33-3.44.99-4.86c.66-1.42,1.6-2.53,2.82-3.33,1.22-.8,2.67-1.21,4.35-1.21,1.49,0,2.81.33,3.97.99,1.16.66,2.01,1.57,2.53,2.72l.22-3.35h3.42v18.72c0,1.56-.34,2.93-1.01,4.12s-1.7,2.11-3.07,2.77c-1.38.66-3.12.99-5.23.99Zm.14-11.05c1.1,0,2.07-.26,2.89-.77.83-.52,1.47-1.21,1.94-2.09.47-.88.7-1.87.7-2.97v-1.37c0-1.1-.24-2.08-.72-2.92-.48-.84-1.14-1.51-1.98-2-.84-.49-1.82-.74-2.95-.74-1.68,0-2.97.58-3.88,1.75s-1.37,2.71-1.37,4.63.46,3.45,1.37,4.66c.91,1.21,2.24,1.82,3.99,1.82Z" style="stroke-width:0px;"/><path d="m1220.76,59.33v-26.24h11.93c1.89,0,3.5.32,4.83.97s2.34,1.57,3.04,2.75c.69,1.19,1.04,2.57,1.04,4.16s-.35,2.96-1.06,4.14c-.71,1.18-1.73,2.09-3.06,2.74s-2.94.97-4.83.97h-8.74v-3.35h9.06c1.41,0,2.55-.37,3.42-1.1.86-.73,1.29-1.87,1.29-3.4s-.43-2.64-1.29-3.38c-.86-.74-2-1.12-3.42-1.12h-8.48v22.86h-3.74Z" style="stroke-width:0px;"/><path d="m1245.68,59.33v-20.27h3.7v20.27h-3.7Zm.18-23.62v-4.68h3.38v4.68h-3.38Z" style="stroke-width:0px;"/><path d="m1254.84,59.33v-28.44h3.67v28.44h-3.67Z" style="stroke-width:0px;"/><path d="m1272.28,59.69c-1.94,0-3.64-.41-5.09-1.24-1.45-.83-2.58-2.02-3.38-3.58s-1.2-3.44-1.2-5.65.38-3.95,1.13-5.53c.75-1.57,1.84-2.8,3.25-3.67,1.41-.88,3.13-1.31,5.14-1.31s3.58.42,4.98,1.26c1.4.84,2.46,2.11,3.18,3.8.72,1.69.99,3.81.83,6.35h-15.31v-2.77h13.12l-1.69,1.3c.31-2.09,0-3.78-.92-5.08-.92-1.3-2.34-1.94-4.26-1.94-1.68,0-3.07.59-4.17,1.76-1.1,1.18-1.65,3.1-1.65,5.76,0,2.52.53,4.4,1.58,5.63,1.05,1.24,2.55,1.85,4.49,1.85,1.49,0,2.68-.34,3.59-1.01.91-.67,1.47-1.61,1.69-2.81l3.27.76c-.24,1.22-.74,2.29-1.51,3.2-.77.91-1.75,1.63-2.95,2.14-1.2.52-2.58.77-4.13.77Z" style="stroke-width:0px;"/><path d="m1308.26,41.01c-.05-1.1-.32-2.03-.83-2.79-.5-.76-1.19-1.33-2.07-1.73-.88-.4-1.91-.59-3.11-.59-1.68,0-2.96.35-3.86,1.06-.9.71-1.35,1.63-1.35,2.75,0,.96.28,1.72.83,2.27.55.55,1.35,1,2.39,1.35,1.04.35,2.28.68,3.72.99,1.08.22,2.12.49,3.13.83,1.01.34,1.91.78,2.71,1.33.8.55,1.44,1.27,1.91,2.16.47.89.7,1.98.7,3.28,0,1.56-.39,2.92-1.17,4.09-.78,1.16-1.91,2.07-3.4,2.72-1.49.65-3.3.97-5.43.97s-3.88-.36-5.38-1.08c-1.5-.72-2.65-1.73-3.47-3.02-.82-1.3-1.25-2.8-1.29-4.5l3.7-.43c.07,1.9.69,3.35,1.85,4.36,1.16,1.01,2.73,1.51,4.69,1.51,1.77,0,3.2-.34,4.28-1.01,1.08-.67,1.62-1.8,1.62-3.38,0-1.06-.29-1.87-.86-2.43-.58-.56-1.33-1-2.27-1.3-.93-.3-1.96-.57-3.09-.81-1.53-.34-2.87-.72-4.01-1.15-1.14-.43-2.08-.94-2.84-1.53-.75-.59-1.32-1.29-1.69-2.11-.37-.82-.56-1.76-.56-2.84,0-1.44.38-2.7,1.13-3.78s1.82-1.93,3.2-2.54,2.98-.92,4.8-.92c3,0,5.34.71,7.05,2.14,1.7,1.43,2.6,3.33,2.7,5.71l-3.74.43Z" style="stroke-width:0px;"/><path d="m1316.53,65.34v-26.28h3.38l.25,3.46c.58-1.2,1.46-2.14,2.66-2.81,1.2-.67,2.56-1.01,4.1-1.01,1.8,0,3.34.42,4.64,1.26,1.29.84,2.29,2.03,3,3.58.71,1.55,1.06,3.38,1.06,5.49s-.36,4.04-1.08,5.63c-.72,1.6-1.74,2.83-3.06,3.71-1.32.88-2.86,1.31-4.64,1.31-1.44,0-2.74-.31-3.9-.92-1.16-.61-2.08-1.53-2.75-2.75v9.32h-3.67Zm3.67-15.16c0,1.27.24,2.38.72,3.33.48.95,1.16,1.68,2.05,2.2.89.52,1.93.77,3.13.77,1.85,0,3.27-.64,4.26-1.93.99-1.28,1.49-3.13,1.49-5.53s-.5-4.04-1.49-5.29c-.99-1.25-2.4-1.87-4.22-1.87-1.17,0-2.21.25-3.11.76s-1.59,1.22-2.08,2.14c-.49.92-.74,2.01-.74,3.26v2.16Z" style="stroke-width:0px;"/><path d="m1345.25,59.69c-2.11,0-3.75-.52-4.91-1.57s-1.74-2.41-1.74-4.09c0-1.34.31-2.44.92-3.28.61-.84,1.41-1.49,2.39-1.96.98-.47,2.05-.81,3.2-1.03l4.24-.79c1.08-.19,1.78-.49,2.12-.88s.5-.92.5-1.57c0-.84-.3-1.54-.9-2.11-.6-.56-1.69-.85-3.27-.85s-2.76.3-3.67.9c-.91.6-1.35,1.52-1.33,2.77l-3.49-.36c.05-1.99.84-3.52,2.39-4.59s3.58-1.6,6.09-1.6c1.68,0,3.1.22,4.26.67,1.16.44,2.05,1.12,2.66,2.03.61.91.92,2.05.92,3.42v10.22c0,.72.13,1.19.4,1.4.26.22.55.32.86.32.19,0,.33,0,.43-.02.09-.01.16-.03.18-.05h.21v2.63c-.24.1-.56.17-.95.22-.4.05-.69.07-.88.07-1.03,0-1.86-.25-2.5-.76-.64-.5-.95-1.27-.95-2.3v-.65c-.5,1.13-1.41,2.04-2.73,2.74-1.32.7-2.8,1.04-4.46,1.04Zm.93-2.95c1.44,0,2.68-.31,3.72-.92,1.04-.61,1.74-1.47,2.1-2.57v-4.64l.39.14c-.24.24-.62.43-1.13.58-.52.14-1.24.31-2.17.5l-2.98.61c-1.51.31-2.51.77-3,1.37-.49.6-.74,1.25-.74,1.94,0,1.03.36,1.79,1.08,2.27.72.48,1.63.72,2.73.72Z" style="stroke-width:0px;"/><path d="m1369.01,59.66c-1.94,0-3.63-.44-5.07-1.31-1.44-.88-2.55-2.1-3.34-3.67-.79-1.57-1.19-3.4-1.19-5.49s.4-3.95,1.2-5.53c.8-1.57,1.93-2.79,3.38-3.65,1.45-.86,3.15-1.3,5.09-1.3,2.45,0,4.42.64,5.91,1.93,1.5,1.28,2.38,2.97,2.64,5.06l-3.59.43c-.14-1.42-.67-2.47-1.58-3.17-.91-.7-2.07-1.04-3.49-1.04-1.77,0-3.18.64-4.22,1.93-1.04,1.28-1.56,3.07-1.56,5.35s.52,4.03,1.55,5.33c1.03,1.3,2.44,1.94,4.24,1.94,1.41,0,2.58-.36,3.49-1.08.91-.72,1.44-1.74,1.58-3.06l3.59.43c-.19,1.46-.68,2.71-1.46,3.74-.78,1.03-1.78,1.82-3,2.36-1.22.54-2.61.81-4.17.81Z" style="stroke-width:0px;"/><path d="m1390,59.69c-1.94,0-3.64-.41-5.09-1.24-1.45-.83-2.58-2.02-3.38-3.58s-1.2-3.44-1.2-5.65.38-3.95,1.13-5.53c.75-1.57,1.84-2.8,3.25-3.67,1.41-.88,3.13-1.31,5.14-1.31s3.58.42,4.98,1.26c1.4.84,2.46,2.11,3.18,3.8.72,1.69.99,3.81.83,6.35h-15.31v-2.77h13.12l-1.69,1.3c.31-2.09,0-3.78-.92-5.08-.92-1.3-2.34-1.94-4.26-1.94-1.68,0-3.07.59-4.17,1.76-1.1,1.18-1.65,3.1-1.65,5.76,0,2.52.53,4.4,1.58,5.63,1.05,1.24,2.55,1.85,4.49,1.85,1.49,0,2.68-.34,3.59-1.01.91-.67,1.47-1.61,1.69-2.81l3.27.76c-.24,1.22-.74,2.29-1.51,3.2-.77.91-1.75,1.63-2.95,2.14-1.2.52-2.58.77-4.13.77Z" style="stroke-width:0px;"/><rect x="1365.45" y="76.5" width="220" height="350" rx="20" ry="20" style="fill:#f0bf48; stroke-width:0px;"/><rect x="1365.45" y="76.5" width="220" height="350" rx="20" ry="20" style="fill:url(#cc-jpp3); stroke-width:0px;"/><rect id="bg" x="885.45" y="76.5" width="220" height="350" rx="20" ry="20" style="fill:url(#pp_cc_ingredient_back); stroke-width:0px;"/><path d="m246.4,1243.78l10.58-26.24h4.43l10.58,26.24h-4l-7.45-18.86c-.26-.7-.53-1.4-.79-2.12-.26-.72-.54-1.5-.83-2.34h.5c-.29.84-.56,1.62-.83,2.34-.26.72-.53,1.43-.79,2.12l-7.49,18.86h-3.92Zm6.05-6.7l1.3-3.28h10.84l1.26,3.28h-13.39Z" style="stroke:#231f20; stroke-miterlimit:10;"/><path d="m275.23,1243.78v-26.24h12.46c1.8,0,3.32.29,4.57.88,1.25.59,2.2,1.4,2.84,2.45.65,1.04.97,2.27.97,3.69,0,1.54-.4,2.87-1.19,4s-1.88,1.9-3.28,2.3c1.18.24,2.05.58,2.61,1.03.56.44.93.98,1.1,1.62.17.64.25,1.39.25,2.25v6.26c0,.29.04.56.11.83.07.26.24.44.5.54v.4h-3.85c-.17-.24-.29-.53-.38-.86-.08-.34-.13-.83-.13-1.48v-5.04c0-1.34-.22-2.33-.65-2.97-.43-.64-1.32-.95-2.66-.95h-9.54v11.3h-3.74Zm3.74-14.58h8.35c1.54,0,2.72-.36,3.55-1.08s1.24-1.76,1.24-3.13-.41-2.4-1.24-3.1-2-1.04-3.51-1.04h-8.39v8.35Z" style="stroke:#231f20; stroke-miterlimit:10;"/><path d="m301.73,1243.78v-26.24h12.46c1.8,0,3.32.29,4.57.88,1.25.59,2.2,1.4,2.84,2.45s.97,2.27.97,3.69c0,1.54-.4,2.87-1.19,4s-1.88,1.9-3.28,2.3c1.18.24,2.05.58,2.61,1.03.56.44.93.98,1.1,1.62.17.64.25,1.39.25,2.25v6.26c0,.29.04.56.11.83.07.26.24.44.5.54v.4h-3.85c-.17-.24-.29-.53-.38-.86-.08-.34-.13-.83-.13-1.48v-5.04c0-1.34-.22-2.33-.65-2.97-.43-.64-1.32-.95-2.66-.95h-9.54v11.3h-3.74Zm3.74-14.58h8.35c1.54,0,2.72-.36,3.55-1.08.83-.72,1.24-1.76,1.24-3.13s-.41-2.4-1.24-3.1c-.83-.7-2-1.04-3.51-1.04h-8.39v8.35Z" style="stroke:#231f20; stroke-miterlimit:10;"/><path d="m325.45,1243.78l10.58-26.24h4.43l10.58,26.24h-4l-7.45-18.86c-.26-.7-.53-1.4-.79-2.12-.26-.72-.54-1.5-.83-2.34h.5c-.29.84-.56,1.62-.83,2.34-.26.72-.53,1.43-.79,2.12l-7.49,18.86h-3.92Zm6.05-6.7l1.3-3.28h10.84l1.26,3.28h-13.39Z" style="stroke:#231f20; stroke-miterlimit:10;"/><path d="m354.29,1243.78v-26.24h5.04l14.36,21.74h-.43v-21.74h3.71v26.24h-4.5l-14.98-22.46h.54v22.46h-3.74Z" style="stroke:#231f20; stroke-miterlimit:10;"/><path d="m393.02,1244.14c-2.45,0-4.52-.56-6.23-1.67-1.7-1.12-3.01-2.68-3.91-4.68-.9-2-1.35-4.34-1.35-7s.49-5.19,1.48-7.22c.98-2.03,2.39-3.59,4.23-4.7,1.84-1.1,4.04-1.66,6.61-1.66,2.14,0,4,.34,5.6,1.03,1.6.68,2.9,1.64,3.91,2.86,1.01,1.22,1.69,2.64,2.05,4.25l-3.82.79c-.36-1.66-1.21-2.99-2.56-4-1.34-1.01-3.06-1.51-5.15-1.51-1.75,0-3.26.38-4.52,1.13s-2.22,1.87-2.88,3.35-.99,3.31-.99,5.49c0,3.41.74,5.94,2.23,7.6,1.49,1.66,3.46,2.48,5.9,2.48,1.58,0,2.98-.31,4.19-.92,1.21-.61,2.17-1.48,2.86-2.61.7-1.13,1.04-2.46,1.04-4h-7.16v-3.1h11.23v13.72h-3.1l-.5-5.72.32.07c-.31,1.18-.91,2.21-1.78,3.11s-1.97,1.61-3.29,2.12c-1.32.52-2.8.77-4.43.77Z" style="stroke:#231f20; stroke-miterlimit:10;"/><path d="m411.46,1243.78v-26.24h18.72v3.28h-14.98v19.66h16.06v3.31h-19.8Zm3.17-11.84v-3.17h14.08v3.17h-14.08Z" style="stroke:#231f20; stroke-miterlimit:10;"/><path d="m435.07,1243.78v-26.24h6.12l7.63,21.71h-.47l7.7-21.71h6.01v26.24h-3.74l.22-24.52h.47l-8.82,24.52h-3.35l-8.64-24.55h.47v24.55h-3.6Z" style="stroke:#231f20; stroke-miterlimit:10;"/><path d="m468.26,1243.78v-26.24h18.72v3.28h-14.98v19.66h16.06v3.31h-19.8Zm3.17-11.84v-3.17h14.08v3.17h-14.08Z" style="stroke:#231f20; stroke-miterlimit:10;"/><path d="m491.88,1243.78v-26.24h5.04l14.36,21.74h-.43v-21.74h3.71v26.24h-4.5l-14.98-22.46h.54v22.46h-3.74Z" style="stroke:#231f20; stroke-miterlimit:10;"/><path d="m517.44,1220.85v-3.31h21.96v3.31h-21.96Zm9.14,22.93v-23.51h3.78v23.51h-3.78Z" style="stroke:#231f20; stroke-miterlimit:10;"/><path d="m550.92,1243.78v-26.24h5.04l14.36,21.74h-.43v-21.74h3.71v26.24h-4.5l-14.98-22.46h.54v22.46h-3.74Z" style="stroke:#231f20; stroke-miterlimit:10;"/><path d="m590.27,1244.14c-2.52,0-4.68-.54-6.48-1.62s-3.19-2.62-4.16-4.63-1.46-4.41-1.46-7.22.49-5.25,1.46-7.25c.97-2,2.36-3.54,4.16-4.61,1.8-1.07,3.96-1.6,6.48-1.6s4.72.54,6.53,1.6c1.81,1.07,3.2,2.6,4.18,4.61.97,2,1.46,4.41,1.46,7.22s-.49,5.22-1.46,7.24c-.97,2.02-2.36,3.56-4.18,4.64s-3.99,1.62-6.53,1.62Zm0-3.46c2.57,0,4.57-.85,6.01-2.54,1.44-1.69,2.16-4.18,2.16-7.47s-.7-5.63-2.09-7.4c-1.39-1.76-3.42-2.65-6.08-2.65s-4.54.85-5.98,2.54c-1.44,1.69-2.16,4.18-2.16,7.47s.69,5.6,2.07,7.38c1.38,1.78,3.4,2.66,6.07,2.66Z" style="stroke:#231f20; stroke-miterlimit:10;"/><path d="m602.69,1220.85v-3.31h21.96v3.31h-21.96Zm9.14,22.93v-23.51h3.78v23.51h-3.78Z" style="stroke:#231f20; stroke-miterlimit:10;"/><path d="m636.16,1243.78v-26.24h6.12l7.63,21.71h-.47l7.7-21.71h6.01v26.24h-3.74l.22-24.52h.47l-8.82,24.52h-3.35l-8.64-24.55h.47v24.55h-3.6Z" style="stroke:#231f20; stroke-miterlimit:10;"/><path d="m666.37,1243.78l10.58-26.24h4.43l10.58,26.24h-4l-7.45-18.86c-.26-.7-.53-1.4-.79-2.12-.26-.72-.54-1.5-.83-2.34h.5c-.29.84-.56,1.62-.83,2.34-.26.72-.53,1.43-.79,2.12l-7.49,18.86h-3.92Zm6.05-6.7l1.3-3.28h10.84l1.26,3.28h-13.39Z" style="stroke:#231f20; stroke-miterlimit:10;"/><path d="m695.21,1243.78v-26.24h5.04l14.36,21.74h-.43v-21.74h3.71v26.24h-4.5l-14.98-22.46h.54v22.46h-3.74Z" style="stroke:#231f20; stroke-miterlimit:10;"/><path d="m724.08,1243.78v-26.24h10.73c2.5,0,4.63.54,6.41,1.62s3.14,2.6,4.1,4.57c.96,1.97,1.44,4.28,1.44,6.95s-.47,4.87-1.4,6.84c-.94,1.97-2.29,3.5-4.07,4.61-1.78,1.1-3.94,1.66-6.48,1.66h-10.73Zm3.74-2.59l-.79-.79h7.67c1.73,0,3.19-.4,4.39-1.19s2.12-1.92,2.75-3.38.95-3.19.95-5.18-.32-3.75-.97-5.2-1.57-2.57-2.77-3.35c-1.2-.78-2.65-1.17-4.36-1.17h-7.67l.79-.79v21.06Z" style="stroke:#231f20; stroke-miterlimit:10;"/><path d="m747.95,1243.78l10.58-26.24h4.43l10.58,26.24h-4l-7.45-18.86c-.26-.7-.53-1.4-.79-2.12-.26-.72-.54-1.5-.83-2.34h.5c-.29.84-.56,1.62-.83,2.34-.26.72-.53,1.43-.79,2.12l-7.49,18.86h-3.92Zm6.05-6.7l1.3-3.28h10.84l1.26,3.28h-13.39Z" style="stroke:#231f20; stroke-miterlimit:10;"/><path d="m769.94,1220.85v-3.31h21.96v3.31h-21.96Zm9.14,22.93v-23.51h3.78v23.51h-3.78Z" style="stroke:#231f20; stroke-miterlimit:10;"/><path d="m794.78,1243.78v-26.24h18.72v3.28h-14.98v19.66h16.06v3.31h-19.8Zm3.17-11.84v-3.17h14.08v3.17h-14.08Z" style="stroke:#231f20; stroke-miterlimit:10;"/><path d="m818.4,1243.78v-26.24h10.73c2.5,0,4.63.54,6.41,1.62,1.78,1.08,3.14,2.6,4.1,4.57s1.44,4.28,1.44,6.95-.47,4.87-1.4,6.84c-.94,1.97-2.29,3.5-4.07,4.61-1.78,1.1-3.94,1.66-6.48,1.66h-10.73Zm3.74-2.59l-.79-.79h7.67c1.73,0,3.19-.4,4.39-1.19,1.2-.79,2.12-1.92,2.75-3.38.64-1.46.95-3.19.95-5.18s-.32-3.75-.97-5.2c-.65-1.45-1.57-2.57-2.77-3.35-1.2-.78-2.65-1.17-4.36-1.17h-7.67l.79-.79v21.06Z" style="stroke:#231f20; stroke-miterlimit:10;"/><path d="m844.42,1248.75v-2.02h.61c.62,0,1.04-.15,1.26-.45.22-.3.32-.68.32-1.13v-1.37h-1.87v-4.1h3.78v5.8c0,1.13-.31,1.96-.94,2.48s-1.44.79-2.45.79h-.72Zm.29-18.22v-4.1h3.82v4.1h-3.82Z" style="stroke:#231f20; stroke-miterlimit:10;"/><path d="m860.55,1243.78l10.58-26.24h4.43l10.58,26.24h-4l-7.45-18.86c-.26-.7-.53-1.4-.79-2.12-.26-.72-.54-1.5-.83-2.34h.5c-.29.84-.56,1.62-.83,2.34-.26.72-.53,1.43-.79,2.12l-7.49,18.86h-3.92Zm6.05-6.7l1.3-3.28h10.84l1.26,3.28h-13.39Z" style="stroke:#231f20; stroke-miterlimit:10;"/><path d="m889.39,1243.78v-26.24h12.46c1.8,0,3.32.29,4.57.88,1.25.59,2.2,1.4,2.84,2.45.65,1.04.97,2.27.97,3.69,0,1.54-.4,2.87-1.19,4s-1.88,1.9-3.28,2.3c1.18.24,2.05.58,2.61,1.03.56.44.93.98,1.1,1.62.17.64.25,1.39.25,2.25v6.26c0,.29.04.56.11.83.07.26.24.44.5.54v.4h-3.85c-.17-.24-.29-.53-.38-.86-.08-.34-.13-.83-.13-1.48v-5.04c0-1.34-.22-2.33-.65-2.97s-1.32-.95-2.66-.95h-9.54v11.3h-3.74Zm3.74-14.58h8.35c1.54,0,2.72-.36,3.55-1.08s1.24-1.76,1.24-3.13-.41-2.4-1.24-3.1-2-1.04-3.51-1.04h-8.39v8.35Z" style="stroke:#231f20; stroke-miterlimit:10;"/><path d="m915.88,1243.78v-26.24h12.46c1.8,0,3.32.29,4.57.88,1.25.59,2.2,1.4,2.84,2.45.65,1.04.97,2.27.97,3.69,0,1.54-.4,2.87-1.19,4s-1.88,1.9-3.28,2.3c1.18.24,2.05.58,2.61,1.03.56.44.93.98,1.1,1.62.17.64.25,1.39.25,2.25v6.26c0,.29.04.56.11.83.07.26.24.44.5.54v.4h-3.85c-.17-.24-.29-.53-.38-.86-.08-.34-.13-.83-.13-1.48v-5.04c0-1.34-.22-2.33-.65-2.97s-1.32-.95-2.66-.95h-9.54v11.3h-3.74Zm3.74-14.58h8.35c1.54,0,2.72-.36,3.55-1.08s1.24-1.76,1.24-3.13-.41-2.4-1.24-3.1-2-1.04-3.51-1.04h-8.39v8.35Z" style="stroke:#231f20; stroke-miterlimit:10;"/><path d="m939.61,1243.78l10.58-26.24h4.43l10.58,26.24h-4l-7.45-18.86c-.26-.7-.53-1.4-.79-2.12-.26-.72-.54-1.5-.83-2.34h.5c-.29.84-.56,1.62-.83,2.34-.26.72-.53,1.43-.79,2.12l-7.49,18.86h-3.92Zm6.05-6.7l1.3-3.28h10.84l1.26,3.28h-13.39Z" style="stroke:#231f20; stroke-miterlimit:10;"/><path d="m968.44,1243.78v-26.24h5.04l14.36,21.74h-.43v-21.74h3.71v26.24h-4.5l-14.98-22.46h.54v22.46h-3.74Z" style="stroke:#231f20; stroke-miterlimit:10;"/><path d="m1007.18,1244.14c-2.45,0-4.52-.56-6.23-1.67-1.71-1.12-3.01-2.68-3.91-4.68-.9-2-1.35-4.34-1.35-7s.49-5.19,1.48-7.22c.98-2.03,2.39-3.59,4.23-4.7,1.84-1.1,4.04-1.66,6.61-1.66,2.14,0,4,.34,5.6,1.03s2.9,1.64,3.91,2.86c1.01,1.22,1.69,2.64,2.05,4.25l-3.82.79c-.36-1.66-1.21-2.99-2.56-4s-3.06-1.51-5.15-1.51c-1.75,0-3.26.38-4.52,1.13-1.26.76-2.22,1.87-2.88,3.35s-.99,3.31-.99,5.49c0,3.41.74,5.94,2.23,7.6s3.46,2.48,5.9,2.48c1.58,0,2.98-.31,4.19-.92,1.21-.61,2.17-1.48,2.86-2.61s1.04-2.46,1.04-4h-7.16v-3.1h11.23v13.72h-3.1l-.5-5.72.32.07c-.31,1.18-.91,2.21-1.78,3.11s-1.97,1.61-3.29,2.12-2.8.77-4.43.77Z" style="stroke:#231f20; stroke-miterlimit:10;"/><path d="m1025.61,1243.78v-26.24h18.72v3.28h-14.98v19.66h16.06v3.31h-19.8Zm3.17-11.84v-3.17h14.08v3.17h-14.08Z" style="stroke:#231f20; stroke-miterlimit:10;"/><path d="m1055.56,1243.78l10.58-26.24h4.43l10.58,26.24h-4l-7.45-18.86c-.26-.7-.53-1.4-.79-2.12-.26-.72-.54-1.5-.83-2.34h.5c-.29.84-.56,1.62-.83,2.34-.26.72-.53,1.43-.79,2.12l-7.49,18.86h-3.92Zm6.05-6.7l1.3-3.28h10.84l1.26,3.28h-13.39Z" style="stroke:#231f20; stroke-miterlimit:10;"/><path d="m1098.87,1225.45c-.05-1.1-.32-2.03-.83-2.79s-1.19-1.33-2.07-1.73c-.88-.4-1.91-.59-3.11-.59-1.68,0-2.97.35-3.87,1.06-.9.71-1.35,1.63-1.35,2.75,0,.96.28,1.72.83,2.27s1.35,1,2.39,1.35c1.04.35,2.29.68,3.73.99,1.08.22,2.12.49,3.13.83s1.91.78,2.72,1.33c.8.55,1.44,1.27,1.91,2.16.47.89.7,1.98.7,3.28,0,1.56-.39,2.92-1.17,4.09-.78,1.16-1.91,2.07-3.4,2.72-1.49.65-3.3.97-5.44.97s-3.88-.36-5.38-1.08c-1.5-.72-2.66-1.73-3.47-3.02-.82-1.3-1.25-2.8-1.3-4.5l3.71-.43c.07,1.9.69,3.35,1.85,4.36,1.16,1.01,2.73,1.51,4.7,1.51,1.78,0,3.2-.34,4.28-1.01,1.08-.67,1.62-1.8,1.62-3.38,0-1.06-.29-1.87-.86-2.43-.58-.56-1.33-1-2.27-1.3-.94-.3-1.97-.57-3.1-.81-1.54-.34-2.88-.72-4.01-1.15-1.14-.43-2.09-.94-2.84-1.53s-1.32-1.29-1.69-2.11c-.37-.82-.56-1.76-.56-2.84,0-1.44.38-2.7,1.13-3.78.76-1.08,1.82-1.93,3.2-2.54,1.38-.61,2.98-.92,4.81-.92,3,0,5.35.71,7.06,2.14s2.6,3.33,2.7,5.71l-3.74.43Z" style="stroke:#231f20; stroke-miterlimit:10;"/><path d="m1122.81,1243.78v-10.94l-10.01-15.3h4.46l7.45,11.92,7.49-11.92h4.36l-10.01,15.3v10.94h-3.74Z" style="stroke:#231f20; stroke-miterlimit:10;"/><path d="m1148.66,1244.14c-2.52,0-4.68-.54-6.48-1.62s-3.19-2.62-4.16-4.63c-.97-2-1.46-4.41-1.46-7.22s.49-5.25,1.46-7.25c.97-2,2.36-3.54,4.16-4.61,1.8-1.07,3.96-1.6,6.48-1.6s4.72.54,6.53,1.6c1.81,1.07,3.2,2.6,4.18,4.61.97,2,1.46,4.41,1.46,7.22s-.49,5.22-1.46,7.24c-.97,2.02-2.36,3.56-4.18,4.64-1.81,1.08-3.99,1.62-6.53,1.62Zm0-3.46c2.57,0,4.57-.85,6.01-2.54,1.44-1.69,2.16-4.18,2.16-7.47s-.7-5.63-2.09-7.4c-1.39-1.76-3.42-2.65-6.08-2.65s-4.54.85-5.98,2.54c-1.44,1.69-2.16,4.18-2.16,7.47s.69,5.6,2.07,7.38,3.4,2.66,6.07,2.66Z" style="stroke:#231f20; stroke-miterlimit:10;"/><path d="m1165.36,1234.42v-16.88h3.78v16.6c0,1.56.3,2.83.9,3.8.6.97,1.44,1.67,2.52,2.11,1.08.43,2.34.65,3.78.65,1.7,0,3.08-.27,4.12-.81s1.81-1.3,2.3-2.29c.49-.98.74-2.14.74-3.46v-16.6h3.74v16.88c0,1.94-.42,3.64-1.26,5.09s-2.07,2.59-3.69,3.4c-1.62.82-3.63,1.22-6.03,1.22-3.36,0-6.02-.84-7.97-2.52-1.96-1.68-2.93-4.08-2.93-7.2Z" style="stroke:#231f20; stroke-miterlimit:10;"/><path d="m1205.9,1243.78l-7.2-26.24h3.85l5.72,22.57h-.47l6.12-22.57h3.92l6.01,22.5h-.36l5.72-22.5h3.92l-7.38,26.24h-4.21l-5.94-22.21h.54l-6.05,22.21h-4.21Z" style="stroke:#231f20; stroke-miterlimit:10;"/><path d="m1239.99,1243.78h-3.74v-26.24h3.74v26.24Z" style="stroke:#231f20; stroke-miterlimit:10;"/><path d="m1260.62,1225.45c-.05-1.1-.32-2.03-.83-2.79s-1.19-1.33-2.07-1.73c-.88-.4-1.91-.59-3.11-.59-1.68,0-2.97.35-3.87,1.06-.9.71-1.35,1.63-1.35,2.75,0,.96.28,1.72.83,2.27s1.35,1,2.39,1.35c1.04.35,2.29.68,3.73.99,1.08.22,2.12.49,3.13.83s1.91.78,2.72,1.33c.8.55,1.44,1.27,1.91,2.16.47.89.7,1.98.7,3.28,0,1.56-.39,2.92-1.17,4.09-.78,1.16-1.91,2.07-3.4,2.72-1.49.65-3.3.97-5.44.97s-3.88-.36-5.38-1.08c-1.5-.72-2.66-1.73-3.47-3.02-.82-1.3-1.25-2.8-1.3-4.5l3.71-.43c.07,1.9.69,3.35,1.85,4.36,1.16,1.01,2.73,1.51,4.7,1.51,1.78,0,3.2-.34,4.28-1.01,1.08-.67,1.62-1.8,1.62-3.38,0-1.06-.29-1.87-.86-2.43-.58-.56-1.33-1-2.27-1.3-.94-.3-1.97-.57-3.1-.81-1.54-.34-2.88-.72-4.01-1.15-1.14-.43-2.09-.94-2.84-1.53s-1.32-1.29-1.69-2.11c-.37-.82-.56-1.76-.56-2.84,0-1.44.38-2.7,1.13-3.78.76-1.08,1.82-1.93,3.2-2.54,1.38-.61,2.98-.92,4.81-.92,3,0,5.35.71,7.06,2.14s2.6,3.33,2.7,5.71l-3.74.43Z" style="stroke:#231f20; stroke-miterlimit:10;"/><path d="m1269.44,1243.78v-26.24h3.74v26.24h-3.74Zm3.17-11.81v-3.28h15.62v3.28h-15.62Zm15.05,11.81v-26.24h3.71v26.24h-3.71Z" style="stroke:#231f20; stroke-miterlimit:10;"/><path d="m1320.63,1225.45c-.05-1.1-.32-2.03-.83-2.79s-1.19-1.33-2.07-1.73c-.88-.4-1.91-.59-3.11-.59-1.68,0-2.97.35-3.87,1.06-.9.71-1.35,1.63-1.35,2.75,0,.96.28,1.72.83,2.27s1.35,1,2.39,1.35c1.04.35,2.29.68,3.73.99,1.08.22,2.12.49,3.13.83s1.91.78,2.72,1.33c.8.55,1.44,1.27,1.91,2.16.47.89.7,1.98.7,3.28,0,1.56-.39,2.92-1.17,4.09-.78,1.16-1.91,2.07-3.4,2.72-1.49.65-3.3.97-5.44.97s-3.88-.36-5.38-1.08c-1.5-.72-2.66-1.73-3.47-3.02-.82-1.3-1.25-2.8-1.3-4.5l3.71-.43c.07,1.9.69,3.35,1.85,4.36,1.16,1.01,2.73,1.51,4.7,1.51,1.78,0,3.2-.34,4.28-1.01,1.08-.67,1.62-1.8,1.62-3.38,0-1.06-.29-1.87-.86-2.43-.58-.56-1.33-1-2.27-1.3-.94-.3-1.97-.57-3.1-.81-1.54-.34-2.88-.72-4.01-1.15-1.14-.43-2.09-.94-2.84-1.53s-1.32-1.29-1.69-2.11c-.37-.82-.56-1.76-.56-2.84,0-1.44.38-2.7,1.13-3.78.76-1.08,1.82-1.93,3.2-2.54,1.38-.61,2.98-.92,4.81-.92,3,0,5.35.71,7.06,2.14s2.6,3.33,2.7,5.71l-3.74.43Z" style="stroke:#231f20; stroke-miterlimit:10;"/><path d="m1333.19,1243.78h-3.74v-26.24h3.74v26.24Z" style="stroke:#231f20; stroke-miterlimit:10;"/><path d="m1339.38,1243.78v-26.24h6.12l7.63,21.71h-.47l7.7-21.71h6.01v26.24h-3.74l.22-24.52h.47l-8.82,24.52h-3.35l-8.64-24.55h.47v24.55h-3.6Z" style="stroke:#231f20; stroke-miterlimit:10;"/><path d="m1376.32,1243.78h-3.74v-26.24h3.74v26.24Z" style="stroke:#231f20; stroke-miterlimit:10;"/><path d="m1382.51,1243.78v-26.24h3.74v23.54l-.61-.61h15.12v3.31h-18.25Z" style="stroke:#231f20; stroke-miterlimit:10;"/><path d="m1401.12,1243.78l10.58-26.24h4.43l10.58,26.24h-4l-7.45-18.86c-.26-.7-.53-1.4-.79-2.12-.26-.72-.54-1.5-.83-2.34h.5c-.29.84-.56,1.62-.83,2.34-.26.72-.53,1.43-.79,2.12l-7.49,18.86h-3.92Zm6.05-6.7l1.3-3.28h10.84l1.26,3.28h-13.39Z" style="stroke:#231f20; stroke-miterlimit:10;"/><path d="m1429.96,1243.78v-26.24h12.46c1.8,0,3.32.29,4.57.88,1.25.59,2.2,1.4,2.84,2.45.65,1.04.97,2.27.97,3.69,0,1.54-.4,2.87-1.19,4s-1.88,1.9-3.28,2.3c1.18.24,2.05.58,2.61,1.03.56.44.93.98,1.1,1.62.17.64.25,1.39.25,2.25v6.26c0,.29.04.56.11.83.07.26.24.44.5.54v.4h-3.85c-.17-.24-.29-.53-.38-.86-.08-.34-.13-.83-.13-1.48v-5.04c0-1.34-.22-2.33-.65-2.97s-1.32-.95-2.66-.95h-9.54v11.3h-3.74Zm3.74-14.58h8.35c1.54,0,2.72-.36,3.55-1.08s1.24-1.76,1.24-3.13-.41-2.4-1.24-3.1-2-1.04-3.51-1.04h-8.39v8.35Z" style="stroke:#231f20; stroke-miterlimit:10;"/><path d="m1456.45,1243.78v-26.24h3.74v23.54l-.61-.61h15.12v3.31h-18.25Z" style="stroke:#231f20; stroke-miterlimit:10;"/><path d="m1480,1243.78v-10.94l-10.01-15.3h4.46l7.45,11.92,7.49-11.92h4.36l-10.01,15.3v10.94h-3.74Z" style="stroke:#231f20; stroke-miterlimit:10;"/><rect x="939.64" y="610.69" width="800" height="500" rx="20" ry="20" style="fill:#e6e6e6; stroke-width:0px;"/><path d="m1182.75,668.02v-26.24h11.93c1.89,0,3.5.32,4.83.97,1.33.65,2.34,1.57,3.04,2.75.69,1.19,1.04,2.57,1.04,4.16s-.35,2.96-1.06,4.14-1.73,2.09-3.06,2.74c-1.33.65-2.94.97-4.83.97h-8.74v-3.35h9.06c1.41,0,2.55-.37,3.42-1.1.86-.73,1.29-1.87,1.29-3.4s-.43-2.64-1.29-3.38c-.86-.74-2-1.12-3.42-1.12h-8.48v22.86h-3.74Z" style="stroke-width:0px;"/><path d="m1207.23,668.02v-28.44h3.67v28.44h-3.67Z" style="stroke-width:0px;"/><path d="m1221.68,668.38c-2.11,0-3.75-.52-4.91-1.57s-1.74-2.41-1.74-4.09c0-1.34.31-2.44.92-3.28s1.41-1.49,2.39-1.96c.98-.47,2.05-.81,3.2-1.03l4.24-.79c1.08-.19,1.78-.49,2.12-.88.34-.4.5-.92.5-1.57,0-.84-.3-1.54-.9-2.11-.6-.56-1.69-.85-3.27-.85s-2.76.3-3.67.9c-.91.6-1.35,1.52-1.33,2.77l-3.49-.36c.05-1.99.84-3.52,2.39-4.59,1.55-1.07,3.58-1.6,6.09-1.6,1.68,0,3.1.22,4.26.67,1.16.44,2.05,1.12,2.66,2.03s.92,2.05.92,3.42v10.22c0,.72.13,1.19.4,1.4s.55.32.86.32c.19,0,.33,0,.43-.02.09-.01.16-.03.18-.05h.21v2.63c-.24.1-.56.17-.95.22s-.69.07-.88.07c-1.03,0-1.86-.25-2.5-.76-.64-.5-.95-1.27-.95-2.3v-.65c-.5,1.13-1.41,2.04-2.73,2.74-1.32.7-2.8,1.04-4.46,1.04Zm.93-2.95c1.44,0,2.68-.31,3.72-.92,1.04-.61,1.74-1.47,2.1-2.57v-4.64l.39.14c-.24.24-.62.43-1.13.58-.52.14-1.24.31-2.17.5l-2.98.61c-1.51.31-2.51.77-3,1.37s-.74,1.25-.74,1.94c0,1.03.36,1.79,1.08,2.27.72.48,1.63.72,2.73.72Z" style="stroke-width:0px;"/><path d="m1238.58,674.32c-.36,0-.77-.04-1.22-.11s-.83-.16-1.11-.25v-3.02h.29c.17.07.37.13.59.18.23.05.47.07.74.07.86,0,1.55-.18,2.07-.54.52-.36.92-.91,1.2-1.66l.68-1.73-7.62-19.51h3.99l3.38,9.47c.14.38.35.95.61,1.71s.54,1.6.84,2.52.57,1.84.81,2.75h-.22c.29-.94.54-1.76.75-2.48.22-.72.45-1.43.7-2.12.25-.7.53-1.49.84-2.38l3.42-9.47h3.67l-8.38,22.03c-.43,1.17-.95,2.09-1.55,2.75-.6.66-1.27,1.12-2.01,1.39-.74.26-1.57.4-2.48.4Z" style="stroke-width:0px;"/><path d="m1256.37,668.02v-20.27h3.7v20.27h-3.7Zm.18-23.62v-4.68h3.38v4.68h-3.38Z" style="stroke-width:0px;"/><path d="m1266.26,668.02v-20.27h3.38l.22,3.06c.86-1.18,1.83-2.04,2.91-2.59,1.08-.55,2.31-.83,3.7-.83,2.04,0,3.71.58,5.01,1.75,1.31,1.16,1.96,2.95,1.96,5.35v13.54h-3.67v-13.18c0-1.27-.36-2.28-1.08-3.02-.72-.74-1.81-1.12-3.27-1.12-.98,0-1.89.21-2.73.63-.84.42-1.5,1.03-2,1.82-.49.79-.74,1.74-.74,2.84v12.02h-3.7Z" style="stroke-width:0px;"/><path d="m1296.45,674.36c-2.37,0-4.26-.52-5.66-1.55-1.4-1.03-2.2-2.39-2.39-4.07l3.34-.79c.1.89.37,1.6.81,2.12.44.53,1.02.91,1.74,1.13.72.23,1.5.34,2.34.34,1.65,0,2.98-.39,3.99-1.17,1.01-.78,1.51-2.06,1.51-3.83v-3.67c-.62,1.1-1.47,1.9-2.55,2.39-1.08.49-2.34.74-3.78.74-1.7,0-3.18-.38-4.44-1.15-1.26-.77-2.22-1.84-2.89-3.22s-1.01-2.99-1.01-4.84.33-3.44.99-4.86c.66-1.42,1.6-2.53,2.82-3.33,1.22-.8,2.67-1.21,4.35-1.21,1.49,0,2.81.33,3.97.99,1.16.66,2.01,1.57,2.53,2.72l.22-3.35h3.42v18.72c0,1.56-.34,2.93-1.01,4.12-.67,1.19-1.7,2.11-3.07,2.77-1.38.66-3.12.99-5.23.99Zm.14-11.05c1.1,0,2.07-.26,2.89-.77.83-.52,1.47-1.21,1.94-2.09.47-.88.7-1.87.7-2.97v-1.37c0-1.1-.24-2.08-.72-2.92-.48-.84-1.14-1.51-1.98-2-.84-.49-1.82-.74-2.95-.74-1.68,0-2.97.58-3.88,1.75s-1.37,2.71-1.37,4.63.46,3.45,1.37,4.66c.91,1.21,2.24,1.82,3.99,1.82Z" style="stroke-width:0px;"/><path d="m1320,668.02v-26.24h11.93c1.89,0,3.5.32,4.83.97,1.33.65,2.34,1.57,3.04,2.75.69,1.19,1.04,2.57,1.04,4.16s-.35,2.96-1.06,4.14-1.73,2.09-3.06,2.74c-1.33.65-2.94.97-4.83.97h-8.74v-3.35h9.06c1.41,0,2.55-.37,3.42-1.1.86-.73,1.29-1.87,1.29-3.4s-.43-2.64-1.29-3.38c-.86-.74-2-1.12-3.42-1.12h-8.48v22.86h-3.74Z" style="stroke-width:0px;"/><path d="m1344.91,668.02v-20.27h3.7v20.27h-3.7Zm.18-23.62v-4.68h3.38v4.68h-3.38Z" style="stroke-width:0px;"/><path d="m1354.08,668.02v-28.44h3.67v28.44h-3.67Z" style="stroke-width:0px;"/><path d="m1371.51,668.38c-1.94,0-3.64-.41-5.09-1.24-1.45-.83-2.58-2.02-3.38-3.58-.8-1.56-1.2-3.44-1.2-5.65s.38-3.95,1.13-5.53,1.84-2.8,3.25-3.67,3.13-1.31,5.14-1.31,3.58.42,4.98,1.26c1.4.84,2.46,2.11,3.18,3.8.72,1.69.99,3.81.83,6.35h-15.31v-2.77h13.12l-1.69,1.3c.31-2.09,0-3.78-.92-5.08-.92-1.3-2.34-1.94-4.26-1.94-1.68,0-3.07.59-4.17,1.76-1.1,1.18-1.65,3.1-1.65,5.76,0,2.52.53,4.4,1.58,5.63,1.05,1.24,2.55,1.85,4.49,1.85,1.49,0,2.68-.33,3.59-1.01.91-.67,1.47-1.61,1.69-2.81l3.27.76c-.24,1.22-.74,2.29-1.51,3.2-.77.91-1.75,1.63-2.95,2.14-1.2.52-2.58.77-4.13.77Z" style="stroke-width:0px;"/><path d="m1407.5,649.7c-.05-1.1-.32-2.03-.83-2.79-.5-.76-1.19-1.33-2.07-1.73-.88-.4-1.91-.59-3.11-.59-1.68,0-2.96.35-3.86,1.06-.9.71-1.35,1.63-1.35,2.75,0,.96.28,1.72.83,2.27.55.55,1.35,1,2.39,1.35,1.04.35,2.28.68,3.72.99,1.08.22,2.12.49,3.13.83s1.91.78,2.71,1.33,1.44,1.27,1.91,2.16c.47.89.7,1.98.7,3.28,0,1.56-.39,2.92-1.17,4.09-.78,1.17-1.91,2.07-3.4,2.72-1.49.65-3.3.97-5.43.97s-3.88-.36-5.38-1.08-2.65-1.73-3.47-3.02c-.82-1.3-1.25-2.79-1.29-4.5l3.7-.43c.07,1.9.69,3.35,1.85,4.36,1.16,1.01,2.73,1.51,4.69,1.51,1.77,0,3.2-.34,4.28-1.01,1.08-.67,1.62-1.8,1.62-3.38,0-1.06-.29-1.87-.86-2.43-.58-.56-1.33-1-2.27-1.3-.93-.3-1.96-.57-3.09-.81-1.53-.34-2.87-.72-4.01-1.15s-2.08-.94-2.84-1.53c-.75-.59-1.32-1.29-1.69-2.11-.37-.82-.56-1.76-.56-2.84,0-1.44.38-2.7,1.13-3.78s1.82-1.93,3.2-2.54c1.38-.61,2.98-.92,4.8-.92,3,0,5.34.71,7.05,2.14,1.7,1.43,2.6,3.33,2.7,5.71l-3.74.43Z" style="stroke-width:0px;"/><path d="m1415.76,674.04v-26.28h3.38l.25,3.46c.58-1.2,1.46-2.14,2.66-2.81,1.2-.67,2.56-1.01,4.1-1.01,1.8,0,3.34.42,4.64,1.26,1.29.84,2.29,2.03,3,3.58.71,1.55,1.06,3.38,1.06,5.49s-.36,4.04-1.08,5.63c-.72,1.6-1.74,2.83-3.06,3.71-1.32.88-2.86,1.31-4.64,1.31-1.44,0-2.74-.31-3.9-.92s-2.08-1.53-2.75-2.75v9.32h-3.67Zm3.67-15.16c0,1.27.24,2.38.72,3.33.48.95,1.16,1.68,2.05,2.2.89.52,1.93.77,3.13.77,1.85,0,3.27-.64,4.26-1.93s1.49-3.13,1.49-5.53-.5-4.04-1.49-5.29c-.99-1.25-2.4-1.87-4.22-1.87-1.17,0-2.21.25-3.11.76s-1.59,1.22-2.08,2.14-.74,2.01-.74,3.26v2.16Z" style="stroke-width:0px;"/><path d="m1444.49,668.38c-2.11,0-3.75-.52-4.91-1.57s-1.74-2.41-1.74-4.09c0-1.34.31-2.44.92-3.28s1.41-1.49,2.39-1.96c.98-.47,2.05-.81,3.2-1.03l4.24-.79c1.08-.19,1.78-.49,2.12-.88.34-.4.5-.92.5-1.57,0-.84-.3-1.54-.9-2.11-.6-.56-1.69-.85-3.27-.85s-2.76.3-3.67.9c-.91.6-1.35,1.52-1.33,2.77l-3.49-.36c.05-1.99.84-3.52,2.39-4.59,1.55-1.07,3.58-1.6,6.09-1.6,1.68,0,3.1.22,4.26.67,1.16.44,2.05,1.12,2.66,2.03s.92,2.05.92,3.42v10.22c0,.72.13,1.19.4,1.4s.55.32.86.32c.19,0,.33,0,.43-.02.09-.01.16-.03.18-.05h.21v2.63c-.24.1-.56.17-.95.22s-.69.07-.88.07c-1.03,0-1.86-.25-2.5-.76-.64-.5-.95-1.27-.95-2.3v-.65c-.5,1.13-1.41,2.04-2.73,2.74-1.32.7-2.8,1.04-4.46,1.04Zm.93-2.95c1.44,0,2.68-.31,3.72-.92,1.04-.61,1.74-1.47,2.1-2.57v-4.64l.39.14c-.24.24-.62.43-1.13.58-.52.14-1.24.31-2.17.5l-2.98.61c-1.51.31-2.51.77-3,1.37s-.74,1.25-.74,1.94c0,1.03.36,1.79,1.08,2.27.72.48,1.63.72,2.73.72Z" style="stroke-width:0px;"/><path d="m1468.25,668.35c-1.94,0-3.63-.44-5.07-1.31-1.44-.88-2.55-2.1-3.34-3.67-.79-1.57-1.19-3.4-1.19-5.49s.4-3.95,1.2-5.53c.8-1.57,1.93-2.79,3.38-3.65,1.45-.86,3.15-1.3,5.09-1.3,2.45,0,4.42.64,5.91,1.93,1.5,1.28,2.38,2.97,2.64,5.06l-3.59.43c-.14-1.42-.67-2.47-1.58-3.17-.91-.7-2.07-1.04-3.49-1.04-1.77,0-3.18.64-4.22,1.93-1.04,1.28-1.56,3.07-1.56,5.35s.52,4.03,1.55,5.33c1.03,1.3,2.44,1.94,4.24,1.94,1.41,0,2.58-.36,3.49-1.08.91-.72,1.44-1.74,1.58-3.06l3.59.43c-.19,1.46-.68,2.71-1.46,3.74-.78,1.03-1.78,1.82-3,2.36-1.22.54-2.61.81-4.17.81Z" style="stroke-width:0px;"/><path d="m1489.24,668.38c-1.94,0-3.64-.41-5.09-1.24-1.45-.83-2.58-2.02-3.38-3.58-.8-1.56-1.2-3.44-1.2-5.65s.38-3.95,1.13-5.53,1.84-2.8,3.25-3.67,3.13-1.31,5.14-1.31,3.58.42,4.98,1.26c1.4.84,2.46,2.11,3.18,3.8.72,1.69.99,3.81.83,6.35h-15.31v-2.77h13.12l-1.69,1.3c.31-2.09,0-3.78-.92-5.08-.92-1.3-2.34-1.94-4.26-1.94-1.68,0-3.07.59-4.17,1.76-1.1,1.18-1.65,3.1-1.65,5.76,0,2.52.53,4.4,1.58,5.63,1.05,1.24,2.55,1.85,4.49,1.85,1.49,0,2.68-.33,3.59-1.01.91-.67,1.47-1.61,1.69-2.81l3.27.76c-.24,1.22-.74,2.29-1.51,3.2-.77.91-1.75,1.63-2.95,2.14-1.2.52-2.58.77-4.13.77Z" style="stroke-width:0px;"/><rect id="bg-2" x="989.53" y="685.69" width="220" height="350" rx="20" ry="20" style="fill:#b3b3b3; stroke-width:0px;"/><path d="m1041.01,828.54v-26.24h12.46c1.8,0,3.32.29,4.57.88,1.25.59,2.2,1.4,2.84,2.45.65,1.04.97,2.27.97,3.69,0,1.54-.4,2.87-1.19,4-.79,1.13-1.88,1.9-3.28,2.3,1.18.24,2.05.58,2.61,1.03.56.44.93.98,1.1,1.62.17.64.25,1.39.25,2.25v6.26c0,.29.04.56.11.83.07.26.24.44.5.54v.4h-3.85c-.17-.24-.29-.53-.38-.86-.08-.34-.13-.83-.13-1.48v-5.04c0-1.34-.22-2.33-.65-2.97-.43-.64-1.32-.95-2.66-.95h-9.54v11.3h-3.74Zm3.74-14.58h8.35c1.54,0,2.72-.36,3.55-1.08.83-.72,1.24-1.76,1.24-3.13s-.41-2.4-1.24-3.1c-.83-.7-2-1.04-3.51-1.04h-8.39v8.35Z" style="stroke-width:0px;"/><path d="m1075.5,828.9c-1.95,0-3.64-.41-5.09-1.24s-2.58-2.02-3.38-3.58c-.8-1.56-1.21-3.44-1.21-5.65s.38-3.95,1.13-5.53,1.84-2.8,3.26-3.67c1.42-.88,3.13-1.31,5.15-1.31s3.58.42,4.99,1.26c1.4.84,2.46,2.11,3.19,3.8.72,1.69,1,3.81.83,6.35h-15.34v-2.77h13.14l-1.69,1.3c.31-2.09,0-3.78-.92-5.08-.92-1.3-2.35-1.94-4.27-1.94-1.68,0-3.07.59-4.18,1.76-1.1,1.18-1.66,3.1-1.66,5.76,0,2.52.53,4.4,1.58,5.63s2.56,1.85,4.5,1.85c1.49,0,2.69-.34,3.6-1.01s1.48-1.61,1.69-2.81l3.28.76c-.24,1.22-.74,2.29-1.51,3.2-.77.91-1.75,1.63-2.95,2.14-1.2.52-2.58.77-4.14.77Z" style="stroke-width:0px;"/><path d="m1096.81,828.86c-1.94,0-3.63-.44-5.08-1.31-1.44-.88-2.56-2.1-3.35-3.67-.79-1.57-1.19-3.4-1.19-5.49s.4-3.95,1.21-5.53c.8-1.57,1.93-2.79,3.38-3.65,1.45-.86,3.15-1.3,5.09-1.3,2.45,0,4.42.64,5.92,1.93,1.5,1.28,2.38,2.97,2.65,5.06l-3.6.43c-.14-1.42-.67-2.47-1.58-3.17s-2.08-1.04-3.49-1.04c-1.78,0-3.19.64-4.23,1.93-1.04,1.28-1.57,3.07-1.57,5.35s.52,4.03,1.55,5.33c1.03,1.3,2.45,1.94,4.25,1.94,1.42,0,2.58-.36,3.49-1.08s1.44-1.74,1.58-3.06l3.6.43c-.19,1.46-.68,2.71-1.46,3.74s-1.78,1.82-3.01,2.36-2.62.81-4.18.81Z" style="stroke-width:0px;"/><path d="m1109.56,828.54v-20.27h3.71v20.27h-3.71Zm.18-23.62v-4.68h3.38v4.68h-3.38Z" style="stroke-width:0px;"/><path d="m1119.46,834.55v-26.28h3.38l.25,3.46c.58-1.2,1.46-2.14,2.66-2.81,1.2-.67,2.57-1.01,4.1-1.01,1.8,0,3.35.42,4.64,1.26,1.3.84,2.3,2.03,3.01,3.58.71,1.55,1.06,3.38,1.06,5.49s-.36,4.04-1.08,5.63c-.72,1.6-1.74,2.83-3.06,3.71-1.32.88-2.87,1.31-4.64,1.31-1.44,0-2.74-.31-3.91-.92-1.17-.61-2.08-1.53-2.75-2.75v9.32h-3.67Zm3.67-15.16c0,1.27.24,2.38.72,3.33.48.95,1.16,1.68,2.05,2.2.89.52,1.93.77,3.13.77,1.85,0,3.27-.64,4.27-1.93,1-1.28,1.49-3.13,1.49-5.53s-.5-4.04-1.49-5.29c-1-1.25-2.41-1.87-4.23-1.87-1.18,0-2.21.25-3.11.76-.9.5-1.6,1.22-2.09,2.14s-.74,2.01-.74,3.26v2.16Z" style="stroke-width:0px;"/><path d="m1151.28,828.9c-1.94,0-3.64-.41-5.09-1.24-1.45-.83-2.58-2.02-3.38-3.58-.8-1.56-1.21-3.44-1.21-5.65s.38-3.95,1.13-5.53c.76-1.57,1.84-2.8,3.26-3.67,1.42-.88,3.13-1.31,5.15-1.31s3.58.42,4.99,1.26c1.4.84,2.47,2.11,3.19,3.8.72,1.69,1,3.81.83,6.35h-15.34v-2.77h13.14l-1.69,1.3c.31-2.09,0-3.78-.92-5.08-.92-1.3-2.35-1.94-4.27-1.94-1.68,0-3.07.59-4.18,1.76-1.1,1.18-1.66,3.1-1.66,5.76,0,2.52.53,4.4,1.58,5.63s2.56,1.85,4.5,1.85c1.49,0,2.69-.34,3.6-1.01s1.48-1.61,1.69-2.81l3.28.76c-.24,1.22-.74,2.29-1.51,3.2-.77.91-1.75,1.63-2.95,2.14-1.2.52-2.58.77-4.14.77Z" style="stroke-width:0px;"/><path d="m1061.71,872.1c-2.57,0-4.75-.56-6.53-1.69s-3.15-2.71-4.09-4.73c-.94-2.03-1.4-4.39-1.4-7.07,0-2.88.51-5.32,1.53-7.31,1.02-1.99,2.45-3.51,4.28-4.55s3.97-1.57,6.39-1.57c2.14,0,4,.37,5.6,1.12,1.6.74,2.88,1.78,3.85,3.11s1.58,2.89,1.82,4.66l-3.85.54c-.36-2.06-1.21-3.58-2.56-4.55-1.34-.97-2.98-1.46-4.9-1.46s-3.38.41-4.61,1.24-2.13,1.99-2.72,3.49c-.59,1.5-.88,3.26-.88,5.27,0,3.41.75,5.93,2.25,7.58,1.5,1.64,3.47,2.47,5.92,2.47,2.21,0,3.95-.55,5.22-1.66,1.27-1.1,2.06-2.57,2.38-4.39l3.78.43c-.26,1.92-.91,3.56-1.94,4.91-1.03,1.36-2.36,2.39-4,3.1-1.63.71-3.48,1.06-5.54,1.06Z" style="stroke-width:0px;"/><path d="m1082.74,872.1c-2.11,0-3.75-.52-4.91-1.57s-1.75-2.41-1.75-4.09c0-1.34.31-2.44.92-3.28.61-.84,1.41-1.49,2.39-1.96.98-.47,2.05-.81,3.2-1.03l4.25-.79c1.08-.19,1.79-.49,2.12-.88.34-.4.5-.92.5-1.57,0-.84-.3-1.54-.9-2.11-.6-.56-1.69-.85-3.28-.85s-2.76.3-3.67.9-1.36,1.52-1.33,2.77l-3.49-.36c.05-1.99.85-3.52,2.39-4.59,1.55-1.07,3.58-1.6,6.1-1.6,1.68,0,3.1.22,4.27.67s2.05,1.12,2.66,2.03c.61.91.92,2.05.92,3.42v10.22c0,.72.13,1.19.4,1.4.26.22.55.32.86.32.19,0,.34,0,.43-.02.1-.01.16-.03.18-.05h.21v2.63c-.24.1-.56.17-.95.22-.4.05-.69.07-.88.07-1.03,0-1.87-.25-2.5-.76s-.95-1.27-.95-2.3v-.65c-.5,1.13-1.42,2.04-2.74,2.74-1.32.7-2.81,1.04-4.46,1.04Zm.94-2.95c1.44,0,2.68-.31,3.73-.92,1.04-.61,1.75-1.47,2.11-2.57v-4.64l.4.14c-.24.24-.62.43-1.13.58-.52.14-1.24.31-2.18.5l-2.99.61c-1.51.31-2.52.77-3.01,1.37-.49.6-.74,1.25-.74,1.94,0,1.03.36,1.79,1.08,2.27.72.48,1.63.72,2.74.72Z" style="stroke-width:0px;"/><path d="m1098.36,871.74v-20.27h3.31l.22,2.99c.53-1.03,1.21-1.82,2.03-2.38.83-.55,1.78-.83,2.86-.83.74,0,1.3.07,1.66.22v3.49h-.25c-.19-.07-.41-.13-.67-.16-.25-.04-.5-.05-.74-.05-1.37,0-2.47.42-3.29,1.26-.83.84-1.3,1.97-1.42,3.38v12.35h-3.71Z" style="stroke-width:0px;"/><path d="m1109.56,861.73c0-2.16.36-4.04,1.08-5.63.72-1.6,1.74-2.83,3.06-3.69,1.32-.86,2.87-1.3,4.64-1.3,1.54,0,2.87.31,4,.94,1.13.62,2.02,1.52,2.66,2.7v-11.45h3.67v28.44h-3.42l-.25-3.46c-.58,1.18-1.46,2.11-2.65,2.79-1.19.68-2.56,1.03-4.12,1.03-1.78,0-3.32-.43-4.63-1.28-1.31-.85-2.31-2.05-3.01-3.6-.7-1.55-1.04-3.38-1.04-5.49Zm3.78,0c0,2.3.49,4.08,1.48,5.33.98,1.25,2.39,1.87,4.21,1.87,1.2,0,2.25-.26,3.15-.77.9-.52,1.6-1.24,2.09-2.16.49-.92.74-2,.74-3.22v-2.16c0-1.3-.24-2.42-.72-3.37-.48-.95-1.17-1.68-2.05-2.2-.89-.52-1.94-.77-3.17-.77-1.82,0-3.23.65-4.23,1.94s-1.49,3.13-1.49,5.51Z" style="stroke-width:0px;"/><path d="m1141.09,872.1c-2.54,0-4.58-.59-6.12-1.76-1.54-1.18-2.34-2.79-2.41-4.86l3.6-.4c0,1.25.46,2.27,1.37,3.06s2.14,1.19,3.67,1.19c1.32,0,2.38-.23,3.19-.7s1.21-1.25,1.21-2.36c0-.67-.16-1.2-.47-1.58-.31-.38-.75-.69-1.31-.92-.56-.23-1.22-.41-1.96-.56-.74-.14-1.55-.31-2.41-.5-1.37-.31-2.5-.72-3.38-1.22s-1.55-1.13-1.98-1.89c-.43-.76-.65-1.65-.65-2.68,0-1.18.31-2.2.94-3.06.62-.86,1.51-1.54,2.66-2.02,1.15-.48,2.51-.72,4.07-.72s2.93.23,4.1.68c1.18.46,2.11,1.14,2.79,2.05.68.91,1.06,2.06,1.13,3.46l-3.56.47c0-1.18-.37-2.12-1.12-2.84-.74-.72-1.9-1.08-3.46-1.08-1.22,0-2.17.26-2.83.77-.66.52-.99,1.18-.99,2,0,.7.2,1.25.59,1.67.4.42,1.01.76,1.85,1.03.84.26,1.92.53,3.24.79,1.01.19,1.92.43,2.74.7.82.28,1.51.64,2.07,1.1.56.46,1,1.03,1.3,1.71.3.68.45,1.53.45,2.54,0,1.78-.68,3.21-2.03,4.3-1.36,1.09-3.45,1.64-6.28,1.64Z" style="stroke-width:0px;"/><path d="m1070.35,914.94v-26.24h11.95c1.9,0,3.51.32,4.84.97,1.33.65,2.35,1.57,3.04,2.75.7,1.19,1.04,2.57,1.04,4.16s-.35,2.96-1.06,4.14c-.71,1.18-1.73,2.09-3.06,2.74-1.33.65-2.95.97-4.84.97h-8.75v-3.35h9.07c1.42,0,2.56-.37,3.42-1.1.86-.73,1.29-1.87,1.29-3.4s-.43-2.64-1.29-3.38c-.86-.74-2-1.12-3.42-1.12h-8.5v22.86h-3.74Z" style="stroke-width:0px;"/><path d="m1095.3,914.94v-20.27h3.71v20.27h-3.71Zm.18-23.62v-4.68h3.38v4.68h-3.38Z" style="stroke-width:0px;"/><path d="m1104.48,914.94v-28.44h3.67v28.44h-3.67Z" style="stroke-width:0px;"/><path d="m1121.94,915.3c-1.94,0-3.64-.41-5.09-1.24-1.45-.83-2.58-2.02-3.38-3.58-.8-1.56-1.21-3.44-1.21-5.65s.38-3.95,1.13-5.53c.76-1.57,1.84-2.8,3.26-3.67,1.42-.88,3.13-1.31,5.15-1.31s3.58.42,4.99,1.26c1.4.84,2.47,2.11,3.19,3.8.72,1.69,1,3.81.83,6.35h-15.34v-2.77h13.14l-1.69,1.3c.31-2.09,0-3.78-.92-5.08-.92-1.3-2.35-1.94-4.27-1.94-1.68,0-3.07.59-4.18,1.76-1.1,1.18-1.66,3.1-1.66,5.76,0,2.52.53,4.4,1.58,5.63s2.56,1.85,4.5,1.85c1.49,0,2.69-.34,3.6-1.01s1.48-1.61,1.69-2.81l3.28.76c-.24,1.22-.74,2.29-1.51,3.2-.77.91-1.75,1.63-2.95,2.14-1.2.52-2.58.77-4.14.77Z" style="stroke-width:0px;"/><rect x="1469.49" y="685.69" width="220" height="350" rx="20" ry="20" style="fill:#b3b3b3; stroke-width:0px;"/><rect x="1469.49" y="685.69" width="220" height="350" rx="20" ry="20" style="fill:#b3b3b3; stroke-width:0px;"/><path d="m1498.85,828.54h-3.74v-26.24h3.74v26.24Z" style="stroke-width:0px;"/><path d="m1504.5,828.54v-20.27h3.38l.22,3.06c.86-1.18,1.84-2.04,2.92-2.59,1.08-.55,2.32-.83,3.71-.83,2.04,0,3.71.58,5.02,1.75,1.31,1.16,1.96,2.95,1.96,5.35v13.54h-3.67v-13.18c0-1.27-.36-2.28-1.08-3.02-.72-.74-1.81-1.12-3.28-1.12-.98,0-1.9.21-2.74.63-.84.42-1.51,1.03-2,1.82-.49.79-.74,1.74-.74,2.84v12.02h-3.71Z" style="stroke-width:0px;"/><path d="m1534.74,834.87c-2.38,0-4.27-.52-5.67-1.55-1.4-1.03-2.2-2.39-2.39-4.07l3.35-.79c.1.89.37,1.6.81,2.12.44.53,1.03.91,1.75,1.13.72.23,1.5.34,2.34.34,1.66,0,2.99-.39,4-1.17,1.01-.78,1.51-2.06,1.51-3.83v-3.67c-.62,1.1-1.48,1.9-2.56,2.39s-2.34.74-3.78.74c-1.7,0-3.19-.38-4.45-1.15-1.26-.77-2.23-1.84-2.9-3.22s-1.01-2.99-1.01-4.84.33-3.44.99-4.86,1.6-2.53,2.83-3.33c1.22-.8,2.68-1.21,4.36-1.21,1.49,0,2.81.33,3.98.99s2.01,1.57,2.54,2.72l.22-3.35h3.42v18.72c0,1.56-.34,2.93-1.01,4.12-.67,1.19-1.7,2.11-3.08,2.77s-3.13.99-5.24.99Zm.14-11.05c1.1,0,2.07-.26,2.9-.77.83-.52,1.48-1.21,1.94-2.09.47-.88.7-1.87.7-2.97v-1.37c0-1.1-.24-2.08-.72-2.92-.48-.84-1.14-1.51-1.98-2-.84-.49-1.82-.74-2.95-.74-1.68,0-2.98.58-3.89,1.75-.91,1.17-1.37,2.71-1.37,4.63s.46,3.45,1.37,4.66,2.24,1.82,4,1.82Z" style="stroke-width:0px;"/><path d="m1549.14,828.54v-20.27h3.31l.22,2.99c.53-1.03,1.21-1.82,2.03-2.38.83-.55,1.78-.83,2.86-.83.74,0,1.3.07,1.66.22v3.49h-.25c-.19-.07-.41-.13-.67-.16-.25-.04-.5-.05-.74-.05-1.37,0-2.47.42-3.29,1.26-.83.84-1.3,1.97-1.42,3.38v12.35h-3.71Z" style="stroke-width:0px;"/><path d="m1569.98,828.9c-1.94,0-3.64-.41-5.09-1.24s-2.58-2.02-3.38-3.58c-.8-1.56-1.21-3.44-1.21-5.65s.38-3.95,1.13-5.53c.76-1.57,1.84-2.8,3.26-3.67,1.42-.88,3.13-1.31,5.15-1.31s3.58.42,4.99,1.26c1.4.84,2.47,2.11,3.19,3.8.72,1.69,1,3.81.83,6.35h-15.34v-2.77h13.14l-1.69,1.3c.31-2.09,0-3.78-.92-5.08-.92-1.3-2.35-1.94-4.27-1.94-1.68,0-3.07.59-4.18,1.76-1.1,1.18-1.66,3.1-1.66,5.76,0,2.52.53,4.4,1.58,5.63,1.06,1.24,2.56,1.85,4.5,1.85,1.49,0,2.69-.34,3.6-1.01s1.48-1.61,1.69-2.81l3.28.76c-.24,1.22-.74,2.29-1.51,3.2-.77.91-1.75,1.63-2.95,2.14s-2.58.77-4.14.77Z" style="stroke-width:0px;"/><path d="m1581.72,818.53c0-2.16.36-4.04,1.08-5.63.72-1.6,1.74-2.83,3.06-3.69,1.32-.86,2.87-1.3,4.64-1.3,1.54,0,2.87.31,4,.94,1.13.62,2.02,1.52,2.66,2.7v-11.45h3.67v28.44h-3.42l-.25-3.46c-.58,1.18-1.46,2.11-2.65,2.79-1.19.68-2.56,1.03-4.12,1.03-1.78,0-3.32-.43-4.63-1.28-1.31-.85-2.31-2.05-3.01-3.6-.7-1.55-1.04-3.38-1.04-5.49Zm3.78,0c0,2.3.49,4.08,1.48,5.33.98,1.25,2.39,1.87,4.21,1.87,1.2,0,2.25-.26,3.15-.77.9-.52,1.6-1.24,2.09-2.16.49-.92.74-2,.74-3.22v-2.16c0-1.3-.24-2.42-.72-3.37-.48-.95-1.16-1.68-2.05-2.2-.89-.52-1.94-.77-3.17-.77-1.82,0-3.23.65-4.23,1.94s-1.49,3.13-1.49,5.51Z" style="stroke-width:0px;"/><path d="m1605.95,828.54v-20.27h3.71v20.27h-3.71Zm.18-23.62v-4.68h3.38v4.68h-3.38Z" style="stroke-width:0px;"/><path d="m1623.87,828.9c-1.94,0-3.64-.41-5.09-1.24s-2.58-2.02-3.38-3.58c-.8-1.56-1.21-3.44-1.21-5.65s.38-3.95,1.13-5.53c.76-1.57,1.84-2.8,3.26-3.67,1.42-.88,3.13-1.31,5.15-1.31s3.58.42,4.99,1.26c1.4.84,2.47,2.11,3.19,3.8.72,1.69,1,3.81.83,6.35h-15.34v-2.77h13.14l-1.69,1.3c.31-2.09,0-3.78-.92-5.08-.92-1.3-2.35-1.94-4.27-1.94-1.68,0-3.07.59-4.18,1.76-1.1,1.18-1.66,3.1-1.66,5.76,0,2.52.53,4.4,1.58,5.63,1.06,1.24,2.56,1.85,4.5,1.85,1.49,0,2.69-.34,3.6-1.01s1.48-1.61,1.69-2.81l3.28.76c-.24,1.22-.74,2.29-1.51,3.2-.77.91-1.75,1.63-2.95,2.14s-2.58.77-4.14.77Z" style="stroke-width:0px;"/><path d="m1636.44,828.54v-20.27h3.38l.22,3.06c.86-1.18,1.84-2.04,2.92-2.59,1.08-.55,2.32-.83,3.71-.83,2.04,0,3.71.58,5.02,1.75,1.31,1.16,1.96,2.95,1.96,5.35v13.54h-3.67v-13.18c0-1.27-.36-2.28-1.08-3.02-.72-.74-1.81-1.12-3.28-1.12-.98,0-1.9.21-2.74.63-.84.42-1.51,1.03-2,1.82-.49.79-.74,1.74-.74,2.84v12.02h-3.71Z" style="stroke-width:0px;"/><path d="m1656.56,811.15v-2.88h4.5v2.88h-4.5Zm6.84,17.64c-1.34,0-2.37-.29-3.08-.88s-1.06-1.43-1.06-2.54v-22.75l3.6-.36v21.6c0,.74.11,1.24.34,1.48.23.24.68.36,1.35.36.36,0,.67-.01.92-.04.25-.02.47-.06.67-.11v2.95c-.53.1-1.02.17-1.48.22s-.88.07-1.26.07Zm2.74-17.64h-5.08v-2.88h5.08v2.88Z" style="stroke-width:0px;"/><path d="m1541.67,872.1c-2.57,0-4.75-.56-6.53-1.69s-3.15-2.71-4.09-4.73c-.94-2.03-1.4-4.39-1.4-7.07,0-2.88.51-5.32,1.53-7.31,1.02-1.99,2.45-3.51,4.28-4.55s3.97-1.57,6.39-1.57c2.14,0,4,.37,5.6,1.12,1.6.74,2.88,1.78,3.85,3.11.97,1.33,1.58,2.89,1.82,4.66l-3.85.54c-.36-2.06-1.21-3.58-2.56-4.55-1.34-.97-2.98-1.46-4.9-1.46s-3.38.41-4.61,1.24-2.13,1.99-2.72,3.49c-.59,1.5-.88,3.26-.88,5.27,0,3.41.75,5.93,2.25,7.58,1.5,1.64,3.47,2.47,5.92,2.47,2.21,0,3.95-.55,5.22-1.66,1.27-1.1,2.06-2.57,2.38-4.39l3.78.43c-.26,1.92-.91,3.56-1.94,4.91-1.03,1.36-2.36,2.39-4,3.1-1.63.71-3.48,1.06-5.54,1.06Z" style="stroke-width:0px;"/><path d="m1562.69,872.1c-2.11,0-3.75-.52-4.91-1.57s-1.75-2.41-1.75-4.09c0-1.34.31-2.44.92-3.28.61-.84,1.41-1.49,2.39-1.96.98-.47,2.05-.81,3.2-1.03l4.25-.79c1.08-.19,1.79-.49,2.12-.88.34-.4.5-.92.5-1.57,0-.84-.3-1.54-.9-2.11-.6-.56-1.69-.85-3.28-.85s-2.76.3-3.67.9-1.36,1.52-1.33,2.77l-3.49-.36c.05-1.99.85-3.52,2.39-4.59,1.55-1.07,3.58-1.6,6.1-1.6,1.68,0,3.1.22,4.27.67,1.16.44,2.05,1.12,2.66,2.03.61.91.92,2.05.92,3.42v10.22c0,.72.13,1.19.4,1.4.26.22.55.32.86.32.19,0,.34,0,.43-.02.1-.01.16-.03.18-.05h.22v2.63c-.24.1-.56.17-.95.22-.4.05-.69.07-.88.07-1.03,0-1.87-.25-2.5-.76-.64-.5-.95-1.27-.95-2.3v-.65c-.5,1.13-1.42,2.04-2.74,2.74-1.32.7-2.81,1.04-4.46,1.04Zm.94-2.95c1.44,0,2.68-.31,3.73-.92,1.04-.61,1.75-1.47,2.11-2.57v-4.64l.4.14c-.24.24-.62.43-1.13.58-.52.14-1.24.31-2.18.5l-2.99.61c-1.51.31-2.51.77-3.01,1.37-.49.6-.74,1.25-.74,1.94,0,1.03.36,1.79,1.08,2.27.72.48,1.63.72,2.74.72Z" style="stroke-width:0px;"/><path d="m1578.32,871.74v-20.27h3.31l.22,2.99c.53-1.03,1.21-1.82,2.03-2.38.83-.55,1.78-.83,2.86-.83.74,0,1.3.07,1.66.22v3.49h-.25c-.19-.07-.41-.13-.67-.16-.25-.04-.5-.05-.74-.05-1.37,0-2.47.42-3.29,1.26-.83.84-1.3,1.97-1.42,3.38v12.35h-3.71Z" style="stroke-width:0px;"/><path d="m1589.51,861.73c0-2.16.36-4.04,1.08-5.63.72-1.6,1.74-2.83,3.06-3.69,1.32-.86,2.87-1.3,4.64-1.3,1.54,0,2.87.31,4,.94,1.13.62,2.02,1.52,2.66,2.7v-11.45h3.67v28.44h-3.42l-.25-3.46c-.58,1.18-1.46,2.11-2.65,2.79-1.19.68-2.56,1.03-4.12,1.03-1.78,0-3.32-.43-4.63-1.28-1.31-.85-2.31-2.05-3.01-3.6-.7-1.55-1.04-3.38-1.04-5.49Zm3.78,0c0,2.3.49,4.08,1.48,5.33.98,1.25,2.39,1.87,4.21,1.87,1.2,0,2.25-.26,3.15-.77.9-.52,1.6-1.24,2.09-2.16.49-.92.74-2,.74-3.22v-2.16c0-1.3-.24-2.42-.72-3.37-.48-.95-1.16-1.68-2.05-2.2-.89-.52-1.94-.77-3.17-.77-1.82,0-3.23.65-4.23,1.94s-1.49,3.13-1.49,5.51Z" style="stroke-width:0px;"/><path d="m1621.05,872.1c-2.54,0-4.58-.59-6.12-1.76-1.54-1.18-2.34-2.79-2.41-4.86l3.6-.4c0,1.25.46,2.27,1.37,3.06.91.79,2.14,1.19,3.67,1.19,1.32,0,2.38-.23,3.19-.7s1.21-1.25,1.21-2.36c0-.67-.16-1.2-.47-1.58-.31-.38-.75-.69-1.31-.92-.56-.23-1.22-.41-1.96-.56-.74-.14-1.55-.31-2.41-.5-1.37-.31-2.5-.72-3.38-1.22s-1.55-1.13-1.98-1.89c-.43-.76-.65-1.65-.65-2.68,0-1.18.31-2.2.94-3.06.62-.86,1.51-1.54,2.66-2.02,1.15-.48,2.51-.72,4.07-.72s2.93.23,4.1.68c1.18.46,2.11,1.14,2.79,2.05.68.91,1.06,2.06,1.13,3.46l-3.56.47c0-1.18-.37-2.12-1.12-2.84-.74-.72-1.9-1.08-3.46-1.08-1.22,0-2.17.26-2.83.77-.66.52-.99,1.18-.99,2,0,.7.2,1.25.59,1.67.4.42,1.01.76,1.85,1.03.84.26,1.92.53,3.24.79,1.01.19,1.92.43,2.74.7.82.28,1.51.64,2.07,1.1.56.46,1,1.03,1.3,1.71.3.68.45,1.53.45,2.54,0,1.78-.68,3.21-2.03,4.3-1.36,1.09-3.45,1.64-6.28,1.64Z" style="stroke-width:0px;"/><path d="m1550.31,914.94v-26.24h11.95c1.9,0,3.51.32,4.84.97,1.33.65,2.35,1.57,3.04,2.75.7,1.19,1.04,2.57,1.04,4.16s-.35,2.96-1.06,4.14c-.71,1.18-1.73,2.09-3.06,2.74-1.33.65-2.95.97-4.84.97h-8.75v-3.35h9.07c1.42,0,2.56-.37,3.42-1.1.86-.73,1.3-1.87,1.3-3.4s-.43-2.64-1.3-3.38c-.86-.74-2-1.12-3.42-1.12h-8.5v22.86h-3.74Z" style="stroke-width:0px;"/><path d="m1575.26,914.94v-20.27h3.71v20.27h-3.71Zm.18-23.62v-4.68h3.38v4.68h-3.38Z" style="stroke-width:0px;"/><path d="m1584.44,914.94v-28.44h3.67v28.44h-3.67Z" style="stroke-width:0px;"/><path d="m1601.9,915.3c-1.94,0-3.64-.41-5.09-1.24s-2.58-2.02-3.38-3.58c-.8-1.56-1.21-3.44-1.21-5.65s.38-3.95,1.13-5.53c.76-1.57,1.84-2.8,3.26-3.67,1.42-.88,3.13-1.31,5.15-1.31s3.58.42,4.99,1.26c1.4.84,2.47,2.11,3.19,3.8.72,1.69,1,3.81.83,6.35h-15.34v-2.77h13.14l-1.69,1.3c.31-2.09,0-3.78-.92-5.08-.92-1.3-2.35-1.94-4.27-1.94-1.68,0-3.07.59-4.18,1.76-1.1,1.18-1.66,3.1-1.66,5.76,0,2.52.53,4.4,1.58,5.63,1.06,1.24,2.56,1.85,4.5,1.85,1.49,0,2.69-.34,3.6-1.01s1.48-1.61,1.69-2.81l3.28.76c-.24,1.22-.74,2.29-1.51,3.2-.77.91-1.75,1.63-2.95,2.14s-2.58.77-4.14.77Z" style="stroke-width:0px;"/><rect y="610.39" width="800" height="500" rx="20" ry="20" style="fill:#e6e6e6; stroke-width:0px;"/><path d="m240.7,667.72v-26.24h10.71c2.49,0,4.62.54,6.4,1.62,1.77,1.08,3.14,2.6,4.1,4.57.96,1.97,1.44,4.28,1.44,6.95s-.47,4.87-1.4,6.84c-.93,1.97-2.29,3.5-4.06,4.61-1.77,1.1-3.93,1.66-6.47,1.66h-10.71Zm3.74-2.59l-.79-.79h7.66c1.73,0,3.19-.4,4.39-1.19,1.2-.79,2.11-1.92,2.75-3.38.63-1.46.95-3.19.95-5.18s-.32-3.75-.97-5.2c-.65-1.45-1.57-2.57-2.77-3.35-1.2-.78-2.65-1.17-4.35-1.17h-7.66l.79-.79v21.06Z" style="stroke-width:0px;"/><path d="m268.23,667.72v-20.27h3.7v20.27h-3.7Zm.18-23.62v-4.68h3.38v4.68h-3.38Z" style="stroke-width:0px;"/><path d="m284.77,668.08c-2.54,0-4.58-.59-6.11-1.76-1.53-1.18-2.34-2.8-2.41-4.86l3.59-.4c0,1.25.46,2.27,1.37,3.06s2.13,1.19,3.67,1.19c1.32,0,2.38-.23,3.18-.7.8-.47,1.2-1.25,1.2-2.36,0-.67-.16-1.2-.47-1.58-.31-.38-.75-.69-1.31-.92-.56-.23-1.22-.41-1.96-.56-.74-.14-1.55-.31-2.41-.5-1.37-.31-2.49-.72-3.38-1.22-.89-.5-1.55-1.13-1.98-1.89-.43-.76-.65-1.65-.65-2.68,0-1.18.31-2.2.93-3.06.62-.86,1.51-1.54,2.66-2.02,1.15-.48,2.5-.72,4.06-.72s2.92.23,4.1.68c1.17.46,2.1,1.14,2.79,2.05.68.91,1.06,2.06,1.13,3.46l-3.56.47c0-1.18-.37-2.12-1.11-2.84-.74-.72-1.89-1.08-3.45-1.08-1.22,0-2.16.26-2.82.77-.66.52-.99,1.18-.99,2,0,.7.2,1.25.59,1.67.39.42,1.01.76,1.85,1.03s1.92.53,3.24.79c1.01.19,1.92.43,2.73.7.81.28,1.5.64,2.07,1.1.56.46.99,1.03,1.29,1.71.3.68.45,1.53.45,2.54,0,1.78-.68,3.21-2.03,4.3-1.35,1.09-3.45,1.64-6.27,1.64Z" style="stroke-width:0px;"/><path d="m305.58,668.04c-1.94,0-3.63-.44-5.07-1.31-1.44-.88-2.55-2.1-3.34-3.67-.79-1.57-1.19-3.4-1.19-5.49s.4-3.95,1.2-5.53c.8-1.57,1.93-2.79,3.38-3.65,1.45-.86,3.15-1.3,5.09-1.3,2.45,0,4.42.64,5.91,1.93,1.5,1.28,2.38,2.97,2.64,5.06l-3.59.43c-.14-1.42-.67-2.47-1.58-3.17-.91-.7-2.07-1.04-3.49-1.04-1.77,0-3.18.64-4.22,1.93-1.04,1.28-1.56,3.07-1.56,5.35s.52,4.03,1.55,5.33,2.44,1.94,4.24,1.94c1.41,0,2.58-.36,3.49-1.08.91-.72,1.44-1.74,1.58-3.06l3.59.43c-.19,1.46-.68,2.71-1.46,3.74-.78,1.03-1.78,1.82-3,2.36-1.22.54-2.61.81-4.17.81Z" style="stroke-width:0px;"/><path d="m323.59,668.08c-2.11,0-3.75-.52-4.91-1.57s-1.74-2.41-1.74-4.09c0-1.34.31-2.44.92-3.28.61-.84,1.41-1.49,2.39-1.96.98-.47,2.05-.81,3.2-1.03l4.24-.79c1.08-.19,1.78-.49,2.12-.88.34-.4.5-.92.5-1.57,0-.84-.3-1.54-.9-2.11-.6-.56-1.69-.85-3.27-.85s-2.76.3-3.67.9c-.91.6-1.35,1.52-1.33,2.77l-3.49-.36c.05-1.99.84-3.52,2.39-4.59,1.55-1.07,3.58-1.6,6.09-1.6,1.68,0,3.1.22,4.26.67,1.16.44,2.05,1.12,2.66,2.03.61.91.92,2.05.92,3.42v10.22c0,.72.13,1.19.4,1.4.26.22.55.32.86.32.19,0,.33,0,.43-.02.09-.01.16-.03.18-.05h.21v2.63c-.24.1-.56.17-.95.22-.4.05-.69.07-.88.07-1.03,0-1.86-.25-2.5-.76-.64-.5-.95-1.27-.95-2.3v-.65c-.5,1.13-1.41,2.04-2.73,2.74-1.32.7-2.8,1.04-4.46,1.04Zm.93-2.95c1.44,0,2.68-.31,3.72-.92,1.04-.61,1.74-1.47,2.1-2.57v-4.64l.39.14c-.24.24-.62.43-1.13.58-.52.14-1.24.31-2.17.5l-2.98.61c-1.51.31-2.51.77-3,1.37-.49.6-.74,1.25-.74,1.94,0,1.03.36,1.79,1.08,2.27.72.48,1.63.72,2.73.72Z" style="stroke-width:0px;"/><path d="m339.19,667.72v-20.27h3.31l.22,2.99c.53-1.03,1.2-1.82,2.03-2.38.83-.55,1.78-.83,2.86-.83.74,0,1.29.07,1.65.22v3.49h-.25c-.19-.07-.41-.13-.67-.16s-.5-.05-.74-.05c-1.37,0-2.46.42-3.29,1.26-.83.84-1.3,1.97-1.42,3.38v12.35h-3.7Z" style="stroke-width:0px;"/><path d="m350.37,657.71c0-2.16.36-4.04,1.08-5.63.72-1.6,1.74-2.83,3.06-3.69,1.32-.86,2.86-1.3,4.64-1.3,1.53,0,2.86.31,3.99.94,1.13.62,2.01,1.52,2.66,2.7v-11.45h3.67v28.44h-3.42l-.25-3.46c-.58,1.18-1.46,2.11-2.64,2.79-1.19.68-2.56,1.03-4.12,1.03-1.77,0-3.31-.43-4.62-1.28-1.31-.85-2.31-2.05-3-3.6-.7-1.55-1.04-3.38-1.04-5.49Zm3.77,0c0,2.3.49,4.08,1.47,5.33.98,1.25,2.38,1.87,4.21,1.87,1.2,0,2.25-.26,3.14-.77.9-.52,1.59-1.24,2.09-2.16.49-.92.74-2,.74-3.22v-2.16c0-1.3-.24-2.42-.72-3.37s-1.16-1.68-2.05-2.2c-.89-.52-1.94-.77-3.16-.77-1.82,0-3.23.65-4.22,1.94-1,1.3-1.49,3.13-1.49,5.51Z" style="stroke-width:0px;"/><path d="m383.8,667.72v-26.24h11.93c1.89,0,3.5.32,4.83.97,1.33.65,2.34,1.57,3.04,2.75.69,1.19,1.04,2.57,1.04,4.16s-.35,2.96-1.06,4.14c-.71,1.18-1.73,2.09-3.06,2.74-1.33.65-2.94.97-4.83.97h-8.74v-3.35h9.06c1.41,0,2.55-.37,3.42-1.1.86-.73,1.29-1.87,1.29-3.4s-.43-2.64-1.29-3.38c-.86-.74-2-1.12-3.42-1.12h-8.48v22.86h-3.74Z" style="stroke-width:0px;"/><path d="m408.71,667.72v-20.27h3.7v20.27h-3.7Zm.18-23.62v-4.68h3.38v4.68h-3.38Z" style="stroke-width:0px;"/><path d="m417.88,667.72v-28.44h3.67v28.44h-3.67Z" style="stroke-width:0px;"/><path d="m435.31,668.08c-1.94,0-3.64-.41-5.09-1.24-1.45-.83-2.58-2.02-3.38-3.58-.8-1.56-1.2-3.44-1.2-5.65s.38-3.95,1.13-5.53c.75-1.57,1.84-2.79,3.25-3.67,1.41-.88,3.13-1.31,5.14-1.31s3.58.42,4.98,1.26c1.4.84,2.46,2.11,3.18,3.8s.99,3.81.83,6.35h-15.31v-2.77h13.12l-1.69,1.3c.31-2.09,0-3.78-.92-5.08-.92-1.3-2.34-1.94-4.26-1.94-1.68,0-3.07.59-4.17,1.76s-1.65,3.1-1.65,5.76c0,2.52.53,4.4,1.58,5.63,1.05,1.24,2.55,1.85,4.49,1.85,1.49,0,2.68-.34,3.59-1.01s1.47-1.61,1.69-2.81l3.27.76c-.24,1.22-.74,2.29-1.51,3.2-.77.91-1.75,1.63-2.95,2.14-1.2.52-2.58.77-4.13.77Z" style="stroke-width:0px;"/><path d="m471.3,649.4c-.05-1.1-.32-2.03-.83-2.79-.5-.76-1.19-1.33-2.07-1.73-.88-.4-1.91-.59-3.11-.59-1.68,0-2.96.35-3.86,1.06-.9.71-1.35,1.63-1.35,2.75,0,.96.28,1.72.83,2.27.55.55,1.35,1,2.39,1.35,1.04.35,2.28.68,3.72.99,1.08.22,2.12.49,3.13.83,1.01.34,1.91.78,2.71,1.33.8.55,1.44,1.27,1.91,2.16.47.89.7,1.98.7,3.28,0,1.56-.39,2.92-1.17,4.09-.78,1.16-1.91,2.07-3.4,2.72-1.49.65-3.3.97-5.43.97s-3.88-.36-5.38-1.08c-1.5-.72-2.65-1.73-3.47-3.02-.82-1.3-1.25-2.8-1.29-4.5l3.7-.43c.07,1.9.69,3.35,1.85,4.36s2.73,1.51,4.69,1.51c1.77,0,3.2-.34,4.28-1.01,1.08-.67,1.62-1.8,1.62-3.38,0-1.06-.29-1.87-.86-2.43-.58-.56-1.33-1-2.27-1.3-.93-.3-1.96-.57-3.09-.81-1.53-.34-2.87-.72-4.01-1.15-1.14-.43-2.08-.94-2.84-1.53s-1.32-1.29-1.69-2.11c-.37-.82-.56-1.76-.56-2.84,0-1.44.38-2.7,1.13-3.78s1.82-1.93,3.2-2.54c1.38-.61,2.98-.92,4.8-.92,3,0,5.34.71,7.05,2.14,1.7,1.43,2.6,3.33,2.7,5.71l-3.74.43Z" style="stroke-width:0px;"/><path d="m479.56,673.73v-26.28h3.38l.25,3.46c.58-1.2,1.46-2.14,2.66-2.81s2.56-1.01,4.1-1.01c1.8,0,3.34.42,4.64,1.26,1.29.84,2.29,2.03,3,3.58s1.06,3.38,1.06,5.49-.36,4.04-1.08,5.63c-.72,1.6-1.74,2.83-3.06,3.71-1.32.88-2.86,1.31-4.64,1.31-1.44,0-2.74-.31-3.9-.92-1.16-.61-2.08-1.53-2.75-2.75v9.32h-3.67Zm3.67-15.16c0,1.27.24,2.38.72,3.33.48.95,1.16,1.68,2.05,2.2.89.52,1.93.77,3.13.77,1.85,0,3.27-.64,4.26-1.93.99-1.28,1.49-3.13,1.49-5.53s-.5-4.04-1.49-5.29-2.4-1.87-4.22-1.87c-1.17,0-2.21.25-3.11.76s-1.59,1.22-2.08,2.14c-.49.92-.74,2.01-.74,3.26v2.16Z" style="stroke-width:0px;"/><path d="m508.29,668.08c-2.11,0-3.75-.52-4.91-1.57s-1.74-2.41-1.74-4.09c0-1.34.31-2.44.92-3.28.61-.84,1.41-1.49,2.39-1.96.98-.47,2.05-.81,3.2-1.03l4.24-.79c1.08-.19,1.78-.49,2.12-.88.34-.4.5-.92.5-1.57,0-.84-.3-1.54-.9-2.11-.6-.56-1.69-.85-3.27-.85s-2.76.3-3.67.9c-.91.6-1.35,1.52-1.33,2.77l-3.49-.36c.05-1.99.84-3.52,2.39-4.59,1.55-1.07,3.58-1.6,6.09-1.6,1.68,0,3.1.22,4.26.67,1.16.44,2.05,1.12,2.66,2.03.61.91.92,2.05.92,3.42v10.22c0,.72.13,1.19.4,1.4.26.22.55.32.86.32.19,0,.33,0,.43-.02.09-.01.16-.03.18-.05h.21v2.63c-.24.1-.56.17-.95.22-.4.05-.69.07-.88.07-1.03,0-1.86-.25-2.5-.76-.64-.5-.95-1.27-.95-2.3v-.65c-.5,1.13-1.41,2.04-2.73,2.74-1.32.7-2.8,1.04-4.46,1.04Zm.93-2.95c1.44,0,2.68-.31,3.72-.92,1.04-.61,1.74-1.47,2.1-2.57v-4.64l.39.14c-.24.24-.62.43-1.13.58-.52.14-1.24.31-2.17.5l-2.98.61c-1.51.31-2.51.77-3,1.37-.49.6-.74,1.25-.74,1.94,0,1.03.36,1.79,1.08,2.27.72.48,1.63.72,2.73.72Z" style="stroke-width:0px;"/><path d="m532.05,668.04c-1.94,0-3.63-.44-5.07-1.31-1.44-.88-2.55-2.1-3.34-3.67-.79-1.57-1.19-3.4-1.19-5.49s.4-3.95,1.2-5.53c.8-1.57,1.93-2.79,3.38-3.65,1.45-.86,3.15-1.3,5.09-1.3,2.45,0,4.42.64,5.91,1.93,1.5,1.28,2.38,2.97,2.64,5.06l-3.59.43c-.14-1.42-.67-2.47-1.58-3.17-.91-.7-2.07-1.04-3.49-1.04-1.77,0-3.18.64-4.22,1.93-1.04,1.28-1.56,3.07-1.56,5.35s.52,4.03,1.55,5.33,2.44,1.94,4.24,1.94c1.41,0,2.58-.36,3.49-1.08.91-.72,1.44-1.74,1.58-3.06l3.59.43c-.19,1.46-.68,2.71-1.46,3.74-.78,1.03-1.78,1.82-3,2.36-1.22.54-2.61.81-4.17.81Z" style="stroke-width:0px;"/><path d="m553.04,668.08c-1.94,0-3.64-.41-5.09-1.24-1.45-.83-2.58-2.02-3.38-3.58-.8-1.56-1.2-3.44-1.2-5.65s.38-3.95,1.13-5.53c.75-1.57,1.84-2.79,3.25-3.67,1.41-.88,3.13-1.31,5.14-1.31s3.58.42,4.98,1.26c1.4.84,2.46,2.11,3.18,3.8s.99,3.81.83,6.35h-15.31v-2.77h13.12l-1.69,1.3c.31-2.09,0-3.78-.92-5.08-.92-1.3-2.34-1.94-4.26-1.94-1.68,0-3.07.59-4.17,1.76s-1.65,3.1-1.65,5.76c0,2.52.53,4.4,1.58,5.63,1.05,1.24,2.55,1.85,4.49,1.85,1.49,0,2.68-.34,3.59-1.01s1.47-1.61,1.69-2.81l3.27.76c-.24,1.22-.74,2.29-1.51,3.2-.77.91-1.75,1.63-2.95,2.14-1.2.52-2.58.77-4.13.77Z" style="stroke-width:0px;"/><rect id="bg-3" x="50.15" y="685.39" width="220" height="350" rx="20" ry="20" style="fill:#b3b3b3; stroke-width:0px;"/><path d="m101.63,828.23v-26.24h12.46c1.8,0,3.32.29,4.57.88,1.25.59,2.2,1.4,2.84,2.45.65,1.04.97,2.27.97,3.69,0,1.54-.4,2.87-1.19,4s-1.88,1.9-3.28,2.3c1.18.24,2.05.58,2.61,1.03.56.44.93.98,1.1,1.62.17.64.25,1.39.25,2.25v6.26c0,.29.04.56.11.83.07.26.24.44.5.54v.4h-3.85c-.17-.24-.29-.53-.38-.86-.08-.34-.13-.83-.13-1.48v-5.04c0-1.34-.22-2.33-.65-2.97s-1.32-.95-2.66-.95h-9.54v11.3h-3.74Zm3.74-14.58h8.35c1.54,0,2.72-.36,3.55-1.08.83-.72,1.24-1.76,1.24-3.13s-.41-2.4-1.24-3.1c-.83-.7-2-1.04-3.51-1.04h-8.39v8.35Z" style="stroke-width:0px;"/><path d="m136.12,828.59c-1.94,0-3.64-.41-5.09-1.24-1.45-.83-2.58-2.02-3.38-3.58-.8-1.56-1.21-3.44-1.21-5.65s.38-3.95,1.13-5.53c.76-1.57,1.84-2.8,3.26-3.67,1.42-.88,3.13-1.31,5.15-1.31s3.58.42,4.99,1.26c1.4.84,2.47,2.11,3.19,3.8.72,1.69,1,3.81.83,6.35h-15.34v-2.77h13.14l-1.69,1.3c.31-2.09,0-3.78-.92-5.08-.92-1.3-2.35-1.94-4.27-1.94-1.68,0-3.07.59-4.18,1.76-1.1,1.18-1.66,3.1-1.66,5.76,0,2.52.53,4.4,1.58,5.63s2.56,1.85,4.5,1.85c1.49,0,2.69-.34,3.6-1.01s1.48-1.61,1.69-2.81l3.28.76c-.24,1.22-.74,2.29-1.51,3.2-.77.91-1.75,1.63-2.95,2.14s-2.58.77-4.14.77Z" style="stroke-width:0px;"/><path d="m157.43,828.56c-1.94,0-3.64-.44-5.08-1.31-1.44-.88-2.56-2.1-3.35-3.67-.79-1.57-1.19-3.4-1.19-5.49s.4-3.95,1.21-5.53c.8-1.57,1.93-2.79,3.38-3.65,1.45-.86,3.15-1.3,5.09-1.3,2.45,0,4.42.64,5.92,1.93,1.5,1.28,2.38,2.97,2.65,5.06l-3.6.43c-.14-1.42-.67-2.47-1.58-3.17s-2.08-1.04-3.49-1.04c-1.78,0-3.19.64-4.23,1.93-1.04,1.28-1.57,3.07-1.57,5.35s.52,4.03,1.55,5.33c1.03,1.3,2.45,1.94,4.25,1.94,1.42,0,2.58-.36,3.49-1.08s1.44-1.74,1.58-3.06l3.6.43c-.19,1.46-.68,2.71-1.46,3.74-.78,1.03-1.78,1.82-3.01,2.36-1.22.54-2.62.81-4.18.81Z" style="stroke-width:0px;"/><path d="m170.17,828.23v-20.27h3.71v20.27h-3.71Zm.18-23.62v-4.68h3.38v4.68h-3.38Z" style="stroke-width:0px;"/><path d="m180.07,834.24v-26.28h3.38l.25,3.46c.58-1.2,1.46-2.14,2.66-2.81,1.2-.67,2.57-1.01,4.1-1.01,1.8,0,3.35.42,4.64,1.26,1.3.84,2.3,2.03,3.01,3.58.71,1.55,1.06,3.38,1.06,5.49s-.36,4.04-1.08,5.63c-.72,1.6-1.74,2.83-3.06,3.71-1.32.88-2.87,1.31-4.64,1.31-1.44,0-2.74-.31-3.91-.92-1.16-.61-2.08-1.53-2.75-2.75v9.32h-3.67Zm3.67-15.16c0,1.27.24,2.38.72,3.33.48.95,1.16,1.68,2.05,2.2.89.52,1.93.77,3.13.77,1.85,0,3.27-.64,4.27-1.93,1-1.28,1.49-3.13,1.49-5.53s-.5-4.04-1.49-5.29c-1-1.25-2.41-1.87-4.23-1.87-1.18,0-2.21.25-3.11.76-.9.5-1.6,1.22-2.09,2.14-.49.92-.74,2.01-.74,3.26v2.16Z" style="stroke-width:0px;"/><path d="m211.9,828.59c-1.94,0-3.64-.41-5.09-1.24-1.45-.83-2.58-2.02-3.38-3.58-.8-1.56-1.21-3.44-1.21-5.65s.38-3.95,1.13-5.53c.76-1.57,1.84-2.8,3.26-3.67,1.42-.88,3.13-1.31,5.15-1.31s3.58.42,4.99,1.26c1.4.84,2.47,2.11,3.19,3.8.72,1.69,1,3.81.83,6.35h-15.34v-2.77h13.14l-1.69,1.3c.31-2.09,0-3.78-.92-5.08-.92-1.3-2.35-1.94-4.27-1.94-1.68,0-3.07.59-4.18,1.76-1.1,1.18-1.66,3.1-1.66,5.76,0,2.52.53,4.4,1.58,5.63s2.56,1.85,4.5,1.85c1.49,0,2.69-.34,3.6-1.01s1.48-1.61,1.69-2.81l3.28.76c-.24,1.22-.74,2.29-1.51,3.2-.77.91-1.75,1.63-2.95,2.14s-2.58.77-4.14.77Z" style="stroke-width:0px;"/><path d="m122.33,871.79c-2.57,0-4.75-.56-6.53-1.69-1.79-1.13-3.15-2.71-4.09-4.73-.94-2.03-1.4-4.39-1.4-7.07,0-2.88.51-5.32,1.53-7.31,1.02-1.99,2.45-3.51,4.28-4.55s3.97-1.57,6.39-1.57c2.14,0,4,.37,5.6,1.12,1.6.74,2.88,1.78,3.85,3.11.97,1.33,1.58,2.89,1.82,4.66l-3.85.54c-.36-2.06-1.21-3.58-2.56-4.55-1.34-.97-2.98-1.46-4.9-1.46s-3.38.41-4.61,1.24c-1.22.83-2.13,1.99-2.72,3.49-.59,1.5-.88,3.26-.88,5.27,0,3.41.75,5.93,2.25,7.58,1.5,1.64,3.47,2.47,5.92,2.47,2.21,0,3.95-.55,5.22-1.66,1.27-1.1,2.06-2.57,2.38-4.39l3.78.43c-.26,1.92-.91,3.56-1.94,4.91-1.03,1.36-2.36,2.39-4,3.1-1.63.71-3.48,1.06-5.54,1.06Z" style="stroke-width:0px;"/><path d="m143.35,871.79c-2.11,0-3.75-.52-4.91-1.57s-1.75-2.41-1.75-4.09c0-1.34.31-2.44.92-3.28.61-.84,1.41-1.49,2.39-1.96.98-.47,2.05-.81,3.2-1.03l4.25-.79c1.08-.19,1.79-.49,2.12-.88.34-.4.5-.92.5-1.57,0-.84-.3-1.54-.9-2.11-.6-.56-1.69-.85-3.28-.85s-2.76.3-3.67.9c-.91.6-1.36,1.52-1.33,2.77l-3.49-.36c.05-1.99.85-3.52,2.39-4.59,1.55-1.07,3.58-1.6,6.1-1.6,1.68,0,3.1.22,4.27.67,1.16.44,2.05,1.12,2.66,2.03.61.91.92,2.05.92,3.42v10.22c0,.72.13,1.19.4,1.4.26.22.55.32.86.32.19,0,.34,0,.43-.02.1-.01.16-.03.18-.05h.22v2.63c-.24.1-.56.17-.95.22s-.69.07-.88.07c-1.03,0-1.87-.25-2.5-.76-.64-.5-.95-1.27-.95-2.3v-.65c-.5,1.13-1.42,2.04-2.74,2.74-1.32.7-2.81,1.04-4.46,1.04Zm.94-2.95c1.44,0,2.68-.31,3.73-.92,1.04-.61,1.75-1.47,2.11-2.57v-4.64l.4.14c-.24.24-.62.43-1.13.58-.52.14-1.24.31-2.18.5l-2.99.61c-1.51.31-2.51.77-3.01,1.37-.49.6-.74,1.25-.74,1.94,0,1.03.36,1.79,1.08,2.27.72.48,1.63.72,2.74.72Z" style="stroke-width:0px;"/><path d="m158.98,871.43v-20.27h3.31l.22,2.99c.53-1.03,1.21-1.82,2.03-2.38.83-.55,1.78-.83,2.86-.83.74,0,1.3.07,1.66.22v3.49h-.25c-.19-.07-.41-.13-.67-.16-.25-.04-.5-.05-.74-.05-1.37,0-2.47.42-3.29,1.26-.83.84-1.3,1.97-1.42,3.38v12.35h-3.71Z" style="stroke-width:0px;"/><path d="m170.17,861.42c0-2.16.36-4.04,1.08-5.63.72-1.6,1.74-2.83,3.06-3.69,1.32-.86,2.87-1.3,4.64-1.3,1.54,0,2.87.31,4,.94,1.13.62,2.02,1.52,2.66,2.7v-11.45h3.67v28.44h-3.42l-.25-3.46c-.58,1.18-1.46,2.11-2.65,2.79s-2.56,1.03-4.12,1.03c-1.78,0-3.32-.43-4.63-1.28-1.31-.85-2.31-2.05-3.01-3.6-.7-1.55-1.04-3.38-1.04-5.49Zm3.78,0c0,2.3.49,4.08,1.48,5.33.98,1.25,2.39,1.87,4.21,1.87,1.2,0,2.25-.26,3.15-.77.9-.52,1.6-1.24,2.09-2.16.49-.92.74-2,.74-3.22v-2.16c0-1.3-.24-2.42-.72-3.37-.48-.95-1.16-1.68-2.05-2.2-.89-.52-1.94-.77-3.17-.77-1.82,0-3.23.65-4.23,1.94-1,1.3-1.49,3.13-1.49,5.51Z" style="stroke-width:0px;"/><path d="m201.71,871.79c-2.54,0-4.58-.59-6.12-1.76-1.54-1.18-2.34-2.79-2.41-4.86l3.6-.4c0,1.25.46,2.27,1.37,3.06.91.79,2.14,1.19,3.67,1.19,1.32,0,2.38-.23,3.19-.7.8-.47,1.21-1.25,1.21-2.36,0-.67-.16-1.2-.47-1.58-.31-.38-.75-.69-1.31-.92-.56-.23-1.22-.41-1.96-.56-.74-.14-1.55-.31-2.41-.5-1.37-.31-2.5-.72-3.38-1.22-.89-.5-1.55-1.13-1.98-1.89-.43-.76-.65-1.65-.65-2.68,0-1.18.31-2.2.94-3.06.62-.86,1.51-1.54,2.66-2.02,1.15-.48,2.51-.72,4.07-.72s2.93.23,4.1.68c1.18.46,2.11,1.14,2.79,2.05s1.06,2.06,1.13,3.46l-3.56.47c0-1.18-.37-2.12-1.12-2.84-.74-.72-1.9-1.08-3.46-1.08-1.22,0-2.17.26-2.83.77-.66.52-.99,1.18-.99,2,0,.7.2,1.25.59,1.67.4.42,1.01.76,1.85,1.03.84.26,1.92.53,3.24.79,1.01.19,1.92.43,2.74.7.82.28,1.51.64,2.07,1.1.56.46,1,1.03,1.3,1.71.3.68.45,1.53.45,2.54,0,1.78-.68,3.21-2.03,4.3-1.36,1.09-3.45,1.64-6.28,1.64Z" style="stroke-width:0px;"/><path d="m130.97,914.63v-26.24h11.95c1.9,0,3.51.32,4.84.97,1.33.65,2.35,1.57,3.04,2.75.7,1.19,1.04,2.57,1.04,4.16s-.35,2.96-1.06,4.14c-.71,1.18-1.73,2.09-3.06,2.74-1.33.65-2.95.97-4.84.97h-8.75v-3.35h9.07c1.42,0,2.56-.37,3.42-1.1.86-.73,1.3-1.87,1.3-3.4s-.43-2.64-1.3-3.38c-.86-.74-2-1.12-3.42-1.12h-8.5v22.86h-3.74Z" style="stroke-width:0px;"/><path d="m155.92,914.63v-20.27h3.71v20.27h-3.71Zm.18-23.62v-4.68h3.38v4.68h-3.38Z" style="stroke-width:0px;"/><path d="m165.1,914.63v-28.44h3.67v28.44h-3.67Z" style="stroke-width:0px;"/><path d="m182.56,914.99c-1.94,0-3.64-.41-5.09-1.24-1.45-.83-2.58-2.02-3.38-3.58-.8-1.56-1.21-3.44-1.21-5.65s.38-3.95,1.13-5.53c.76-1.57,1.84-2.8,3.26-3.67,1.42-.88,3.13-1.31,5.15-1.31s3.58.42,4.99,1.26c1.4.84,2.47,2.11,3.19,3.8.72,1.69,1,3.81.83,6.35h-15.34v-2.77h13.14l-1.69,1.3c.31-2.09,0-3.78-.92-5.08-.92-1.3-2.35-1.94-4.27-1.94-1.68,0-3.07.59-4.18,1.76-1.1,1.18-1.66,3.1-1.66,5.76,0,2.52.53,4.4,1.58,5.63s2.56,1.85,4.5,1.85c1.49,0,2.69-.34,3.6-1.01s1.48-1.61,1.69-2.81l3.28.76c-.24,1.22-.74,2.29-1.51,3.2-.77.91-1.75,1.63-2.95,2.14s-2.58.77-4.14.77Z" style="stroke-width:0px;"/><rect x="530.1" y="685.39" width="220" height="350" rx="20" ry="20" style="fill:#b3b3b3; stroke-width:0px;"/><rect x="530.1" y="685.39" width="220" height="350" rx="20" ry="20" style="fill:#b3b3b3; stroke-width:0px;"/><path d="m559.46,828.23h-3.74v-26.24h3.74v26.24Z" style="stroke-width:0px;"/><path d="m565.12,828.23v-20.27h3.38l.22,3.06c.86-1.18,1.84-2.04,2.92-2.59s2.32-.83,3.71-.83c2.04,0,3.71.58,5.02,1.75,1.31,1.16,1.96,2.95,1.96,5.35v13.54h-3.67v-13.18c0-1.27-.36-2.28-1.08-3.02-.72-.74-1.81-1.12-3.28-1.12-.98,0-1.9.21-2.74.63s-1.51,1.03-2,1.82-.74,1.74-.74,2.84v12.02h-3.71Z" style="stroke-width:0px;"/><path d="m595.35,834.57c-2.38,0-4.27-.52-5.67-1.55-1.4-1.03-2.2-2.39-2.39-4.07l3.35-.79c.1.89.37,1.6.81,2.12s1.03.91,1.75,1.13c.72.23,1.5.34,2.34.34,1.66,0,2.99-.39,4-1.17,1.01-.78,1.51-2.06,1.51-3.83v-3.67c-.62,1.1-1.48,1.9-2.56,2.39s-2.34.74-3.78.74c-1.71,0-3.19-.38-4.45-1.15-1.26-.77-2.23-1.84-2.9-3.22s-1.01-2.99-1.01-4.84.33-3.44.99-4.86,1.6-2.53,2.83-3.33c1.22-.8,2.68-1.21,4.36-1.21,1.49,0,2.81.33,3.98.99,1.16.66,2.01,1.57,2.54,2.72l.22-3.35h3.42v18.72c0,1.56-.34,2.93-1.01,4.12-.67,1.19-1.7,2.11-3.08,2.77-1.38.66-3.13.99-5.24.99Zm.14-11.05c1.1,0,2.07-.26,2.9-.77.83-.52,1.48-1.21,1.94-2.09.47-.88.7-1.87.7-2.97v-1.37c0-1.1-.24-2.08-.72-2.92-.48-.84-1.14-1.51-1.98-2-.84-.49-1.82-.74-2.95-.74-1.68,0-2.98.58-3.89,1.75-.91,1.17-1.37,2.71-1.37,4.63s.46,3.45,1.37,4.66c.91,1.21,2.24,1.82,4,1.82Z" style="stroke-width:0px;"/><path d="m609.75,828.23v-20.27h3.31l.22,2.99c.53-1.03,1.21-1.82,2.03-2.38.83-.55,1.78-.83,2.86-.83.74,0,1.3.07,1.66.22v3.49h-.25c-.19-.07-.41-.13-.67-.16-.25-.04-.5-.05-.74-.05-1.37,0-2.47.42-3.29,1.26-.83.84-1.3,1.97-1.42,3.38v12.35h-3.71Z" style="stroke-width:0px;"/><path d="m630.6,828.59c-1.94,0-3.64-.41-5.09-1.24-1.45-.83-2.58-2.02-3.38-3.58-.8-1.56-1.21-3.44-1.21-5.65s.38-3.95,1.13-5.53,1.84-2.8,3.26-3.67c1.42-.88,3.13-1.31,5.15-1.31s3.58.42,4.99,1.26c1.4.84,2.47,2.11,3.19,3.8.72,1.69,1,3.81.83,6.35h-15.34v-2.77h13.14l-1.69,1.3c.31-2.09,0-3.78-.92-5.08-.92-1.3-2.35-1.94-4.27-1.94-1.68,0-3.07.59-4.18,1.76-1.1,1.18-1.66,3.1-1.66,5.76,0,2.52.53,4.4,1.58,5.63,1.06,1.24,2.56,1.85,4.5,1.85,1.49,0,2.69-.34,3.6-1.01s1.48-1.61,1.69-2.81l3.28.76c-.24,1.22-.74,2.29-1.51,3.2s-1.75,1.63-2.95,2.14-2.58.77-4.14.77Z" style="stroke-width:0px;"/><path d="m642.33,818.22c0-2.16.36-4.04,1.08-5.63.72-1.6,1.74-2.83,3.06-3.69,1.32-.86,2.87-1.3,4.64-1.3,1.54,0,2.87.31,4,.94,1.13.62,2.02,1.52,2.66,2.7v-11.45h3.67v28.44h-3.42l-.25-3.46c-.58,1.18-1.46,2.11-2.65,2.79-1.19.68-2.56,1.03-4.12,1.03-1.78,0-3.32-.43-4.63-1.28-1.31-.85-2.31-2.05-3.01-3.6-.7-1.55-1.04-3.38-1.04-5.49Zm3.78,0c0,2.3.49,4.08,1.48,5.33s2.39,1.87,4.21,1.87c1.2,0,2.25-.26,3.15-.77.9-.52,1.6-1.24,2.09-2.16.49-.92.74-2,.74-3.22v-2.16c0-1.3-.24-2.42-.72-3.37-.48-.95-1.17-1.68-2.05-2.2-.89-.52-1.94-.77-3.17-.77-1.82,0-3.23.65-4.23,1.94-1,1.3-1.49,3.13-1.49,5.51Z" style="stroke-width:0px;"/><path d="m666.56,828.23v-20.27h3.71v20.27h-3.71Zm.18-23.62v-4.68h3.38v4.68h-3.38Z" style="stroke-width:0px;"/><path d="m684.49,828.59c-1.94,0-3.64-.41-5.09-1.24-1.45-.83-2.58-2.02-3.38-3.58-.8-1.56-1.21-3.44-1.21-5.65s.38-3.95,1.13-5.53,1.84-2.8,3.26-3.67c1.42-.88,3.13-1.31,5.15-1.31s3.58.42,4.99,1.26c1.4.84,2.47,2.11,3.19,3.8.72,1.69,1,3.81.83,6.35h-15.34v-2.77h13.14l-1.69,1.3c.31-2.09,0-3.78-.92-5.08-.92-1.3-2.35-1.94-4.27-1.94-1.68,0-3.07.59-4.18,1.76-1.1,1.18-1.66,3.1-1.66,5.76,0,2.52.53,4.4,1.58,5.63,1.06,1.24,2.56,1.85,4.5,1.85,1.49,0,2.69-.34,3.6-1.01s1.48-1.61,1.69-2.81l3.28.76c-.24,1.22-.74,2.29-1.51,3.2s-1.75,1.63-2.95,2.14-2.58.77-4.14.77Z" style="stroke-width:0px;"/><path d="m697.05,828.23v-20.27h3.38l.22,3.06c.86-1.18,1.84-2.04,2.92-2.59s2.32-.83,3.71-.83c2.04,0,3.71.58,5.02,1.75,1.31,1.16,1.96,2.95,1.96,5.35v13.54h-3.67v-13.18c0-1.27-.36-2.28-1.08-3.02-.72-.74-1.81-1.12-3.28-1.12-.98,0-1.9.21-2.74.63s-1.51,1.03-2,1.82-.74,1.74-.74,2.84v12.02h-3.71Z" style="stroke-width:0px;"/><path d="m717.18,810.84v-2.88h4.5v2.88h-4.5Zm6.84,17.64c-1.34,0-2.37-.29-3.08-.88s-1.06-1.43-1.06-2.54v-22.75l3.6-.36v21.6c0,.74.11,1.24.34,1.48.23.24.68.36,1.35.36.36,0,.67-.01.92-.04.25-.02.47-.06.67-.11v2.95c-.53.1-1.02.17-1.48.22-.46.05-.88.07-1.26.07Zm2.74-17.64h-5.08v-2.88h5.08v2.88Z" style="stroke-width:0px;"/><path d="m612.06,871.79c-2.57,0-4.75-.56-6.53-1.69s-3.15-2.71-4.09-4.73c-.94-2.03-1.4-4.39-1.4-7.07,0-2.88.51-5.32,1.53-7.31,1.02-1.99,2.45-3.51,4.28-4.55s3.97-1.57,6.39-1.57c2.14,0,4,.37,5.6,1.12,1.6.74,2.88,1.78,3.85,3.11.97,1.33,1.58,2.89,1.82,4.66l-3.85.54c-.36-2.06-1.21-3.58-2.56-4.55-1.34-.97-2.98-1.46-4.9-1.46s-3.38.41-4.61,1.24-2.13,1.99-2.72,3.49c-.59,1.5-.88,3.26-.88,5.27,0,3.41.75,5.93,2.25,7.58,1.5,1.64,3.47,2.47,5.92,2.47,2.21,0,3.95-.55,5.22-1.66,1.27-1.1,2.06-2.57,2.38-4.39l3.78.43c-.26,1.92-.91,3.56-1.94,4.91-1.03,1.36-2.36,2.39-4,3.1-1.63.71-3.48,1.06-5.54,1.06Z" style="stroke-width:0px;"/><path d="m633.08,871.79c-2.11,0-3.75-.52-4.91-1.57s-1.75-2.41-1.75-4.09c0-1.34.31-2.44.92-3.28.61-.84,1.41-1.49,2.39-1.96.98-.47,2.05-.81,3.2-1.03l4.25-.79c1.08-.19,1.79-.49,2.12-.88.34-.4.5-.92.5-1.57,0-.84-.3-1.54-.9-2.11-.6-.56-1.69-.85-3.28-.85s-2.76.3-3.67.9c-.91.6-1.36,1.52-1.33,2.77l-3.49-.36c.05-1.99.85-3.52,2.39-4.59,1.55-1.07,3.58-1.6,6.1-1.6,1.68,0,3.1.22,4.27.67s2.05,1.12,2.66,2.03.92,2.05.92,3.42v10.22c0,.72.13,1.19.4,1.4.26.22.55.32.86.32.19,0,.34,0,.43-.02.1-.01.16-.03.18-.05h.22v2.63c-.24.1-.56.17-.95.22-.4.05-.69.07-.88.07-1.03,0-1.87-.25-2.5-.76s-.95-1.27-.95-2.3v-.65c-.5,1.13-1.42,2.04-2.74,2.74-1.32.7-2.81,1.04-4.46,1.04Zm.94-2.95c1.44,0,2.68-.31,3.73-.92,1.04-.61,1.75-1.47,2.11-2.57v-4.64l.4.14c-.24.24-.62.43-1.13.58-.52.14-1.24.31-2.18.5l-2.99.61c-1.51.31-2.51.77-3.01,1.37-.49.6-.74,1.25-.74,1.94,0,1.03.36,1.79,1.08,2.27.72.48,1.63.72,2.74.72Z" style="stroke-width:0px;"/><path d="m648.71,871.43v-20.27h3.31l.22,2.99c.53-1.03,1.21-1.82,2.03-2.38.83-.55,1.78-.83,2.86-.83.74,0,1.3.07,1.66.22v3.49h-.25c-.19-.07-.41-.13-.67-.16-.25-.04-.5-.05-.74-.05-1.37,0-2.47.42-3.29,1.26-.83.84-1.3,1.97-1.42,3.38v12.35h-3.71Z" style="stroke-width:0px;"/><path d="m659.9,861.42c0-2.16.36-4.04,1.08-5.63.72-1.6,1.74-2.83,3.06-3.69,1.32-.86,2.87-1.3,4.64-1.3,1.54,0,2.87.31,4,.94,1.13.62,2.02,1.52,2.66,2.7v-11.45h3.67v28.44h-3.42l-.25-3.46c-.58,1.18-1.46,2.11-2.65,2.79-1.19.68-2.56,1.03-4.12,1.03-1.78,0-3.32-.43-4.63-1.28-1.31-.85-2.31-2.05-3.01-3.6-.7-1.55-1.04-3.38-1.04-5.49Zm3.78,0c0,2.3.49,4.08,1.48,5.33.98,1.25,2.39,1.87,4.21,1.87,1.2,0,2.25-.26,3.15-.77.9-.52,1.6-1.24,2.09-2.16.49-.92.74-2,.74-3.22v-2.16c0-1.3-.24-2.42-.72-3.37-.48-.95-1.16-1.68-2.05-2.2-.89-.52-1.94-.77-3.17-.77-1.82,0-3.23.65-4.23,1.94s-1.49,3.13-1.49,5.51Z" style="stroke-width:0px;"/><path d="m610.93,914.63v-26.24h11.95c1.9,0,3.51.32,4.84.97,1.33.65,2.35,1.57,3.04,2.75.7,1.19,1.04,2.57,1.04,4.16s-.35,2.96-1.06,4.14-1.73,2.09-3.06,2.74c-1.33.65-2.95.97-4.84.97h-8.75v-3.35h9.07c1.42,0,2.56-.37,3.42-1.1.86-.73,1.3-1.87,1.3-3.4s-.43-2.64-1.3-3.38c-.86-.74-2-1.12-3.42-1.12h-8.5v22.86h-3.74Z" style="stroke-width:0px;"/><path d="m635.87,914.63v-20.27h3.71v20.27h-3.71Zm.18-23.62v-4.68h3.38v4.68h-3.38Z" style="stroke-width:0px;"/><path d="m645.05,914.63v-28.44h3.67v28.44h-3.67Z" style="stroke-width:0px;"/><path d="m662.51,914.99c-1.94,0-3.64-.41-5.09-1.24-1.45-.83-2.58-2.02-3.38-3.58-.8-1.56-1.21-3.44-1.21-5.65s.38-3.95,1.13-5.53,1.84-2.8,3.26-3.67c1.42-.88,3.13-1.31,5.15-1.31s3.58.42,4.99,1.26c1.4.84,2.47,2.11,3.19,3.8.72,1.69,1,3.81.83,6.35h-15.34v-2.77h13.14l-1.69,1.3c.31-2.09,0-3.78-.92-5.08-.92-1.3-2.35-1.94-4.27-1.94-1.68,0-3.07.59-4.18,1.76-1.1,1.18-1.66,3.1-1.66,5.76,0,2.52.53,4.4,1.58,5.63,1.06,1.24,2.56,1.85,4.5,1.85,1.49,0,2.69-.34,3.6-1.01s1.48-1.61,1.69-2.81l3.28.76c-.24,1.22-.74,2.29-1.51,3.2s-1.75,1.63-2.95,2.14-2.58.77-4.14.77Z" style="stroke-width:0px;"/></svg>